<?xml version="1.0" encoding="UTF-8" standalone="no"?>
<!DOCTYPE svg PUBLIC "-//W3C//DTD SVG 1.1//EN"
 "http://www.w3.org/Graphics/SVG/1.1/DTD/svg11.dtd">
<!-- Generated by graphviz version 2.40.1 (20161225.0304)
 -->
<!-- Title: controllers_diagram Pages: 1 -->
<svg width="599pt" height="353pt"
 viewBox="0.00 0.00 599.38 353.00" xmlns="http://www.w3.org/2000/svg" xmlns:xlink="http://www.w3.org/1999/xlink">
<g id="graph0" class="graph" transform="scale(1 1) rotate(0) translate(4 349)">
<title>controllers_diagram</title>
<polygon fill="transparent" stroke="transparent" points="-4,4 -4,-349 595.3755,-349 595.3755,4 -4,4"/>
<!-- _diagram_info -->
<g id="node1" class="node">
<title>_diagram_info</title>
<text text-anchor="start" x="392" y="-330.6" font-family="Times,serif" font-size="13.00" fill="#000000">Controllers diagram</text>
<text text-anchor="start" x="392" y="-317.6" font-family="Times,serif" font-size="13.00" fill="#000000">Date: Mar 08 2018 &#45; 11:18</text>
<text text-anchor="start" x="392" y="-304.6" font-family="Times,serif" font-size="13.00" fill="#000000">Migration version: 20180307152143</text>
<text text-anchor="start" x="392" y="-291.6" font-family="Times,serif" font-size="13.00" fill="#000000">Generated by RailRoady 1.5.3</text>
<text text-anchor="start" x="392" y="-278.6" font-family="Times,serif" font-size="13.00" fill="#000000">http://railroady.prestonlee.com</text>
</g>
<!-- ApplicationController -->
<g id="node2" class="node">
<title>ApplicationController</title>
<path fill="none" stroke="#000000" d="M140,-240.5C140,-240.5 255.6416,-240.5 255.6416,-240.5 261.6416,-240.5 267.6416,-246.5 267.6416,-252.5 267.6416,-252.5 267.6416,-320.5 267.6416,-320.5 267.6416,-326.5 261.6416,-332.5 255.6416,-332.5 255.6416,-332.5 140,-332.5 140,-332.5 134,-332.5 128,-326.5 128,-320.5 128,-320.5 128,-252.5 128,-252.5 128,-246.5 134,-240.5 140,-240.5"/>
<text text-anchor="middle" x="197.8208" y="-317.3" font-family="Times,serif" font-size="14.00" fill="#000000">ApplicationController</text>
<polyline fill="none" stroke="#000000" points="128,-310.5 267.6416,-310.5 "/>
<polyline fill="none" stroke="#000000" points="128,-286.5 267.6416,-286.5 "/>
<polyline fill="none" stroke="#000000" points="128,-262.5 267.6416,-262.5 "/>
<text text-anchor="start" x="136" y="-247.3" font-family="Times,serif" font-size="14.00" fill="#000000">_layout</text>
</g>
<!-- CategoriesController -->
<g id="node3" class="node">
<title>CategoriesController</title>
<path fill="none" stroke="#000000" d="M156,-.5C156,-.5 265.4141,-.5 265.4141,-.5 271.4141,-.5 277.4141,-6.5 277.4141,-12.5 277.4141,-12.5 277.4141,-190.5 277.4141,-190.5 277.4141,-196.5 271.4141,-202.5 265.4141,-202.5 265.4141,-202.5 156,-202.5 156,-202.5 150,-202.5 144,-196.5 144,-190.5 144,-190.5 144,-12.5 144,-12.5 144,-6.5 150,-.5 156,-.5"/>
<text text-anchor="middle" x="210.707" y="-187.3" font-family="Times,serif" font-size="14.00" fill="#000000">CategoriesController</text>
<polyline fill="none" stroke="#000000" points="144,-180.5 277.4141,-180.5 "/>
<text text-anchor="start" x="152" y="-165.3" font-family="Times,serif" font-size="14.00" fill="#000000">create</text>
<text text-anchor="start" x="152" y="-151.3" font-family="Times,serif" font-size="14.00" fill="#000000">destroy</text>
<text text-anchor="start" x="152" y="-137.3" font-family="Times,serif" font-size="14.00" fill="#000000">edit</text>
<text text-anchor="start" x="152" y="-123.3" font-family="Times,serif" font-size="14.00" fill="#000000">index</text>
<text text-anchor="start" x="152" y="-109.3" font-family="Times,serif" font-size="14.00" fill="#000000">new</text>
<text text-anchor="start" x="152" y="-95.3" font-family="Times,serif" font-size="14.00" fill="#000000">show</text>
<text text-anchor="start" x="152" y="-81.3" font-family="Times,serif" font-size="14.00" fill="#000000">update</text>
<polyline fill="none" stroke="#000000" points="144,-74.5 277.4141,-74.5 "/>
<polyline fill="none" stroke="#000000" points="144,-50.5 277.4141,-50.5 "/>
<text text-anchor="start" x="152" y="-35.3" font-family="Times,serif" font-size="14.00" fill="#000000">_layout</text>
<text text-anchor="start" x="152" y="-21.3" font-family="Times,serif" font-size="14.00" fill="#000000">category_params</text>
<text text-anchor="start" x="152" y="-7.3" font-family="Times,serif" font-size="14.00" fill="#000000">set_category</text>
</g>
<!-- PagesController -->
<g id="node4" class="node">
<title>PagesController</title>
<path fill="none" stroke="#000000" d="M12,-96.5C12,-96.5 94.207,-96.5 94.207,-96.5 100.207,-96.5 106.207,-102.5 106.207,-108.5 106.207,-108.5 106.207,-202.5 106.207,-202.5 106.207,-208.5 100.207,-214.5 94.207,-214.5 94.207,-214.5 12,-214.5 12,-214.5 6,-214.5 0,-208.5 0,-202.5 0,-202.5 0,-108.5 0,-108.5 0,-102.5 6,-96.5 12,-96.5"/>
<text text-anchor="middle" x="53.1035" y="-199.3" font-family="Times,serif" font-size="14.00" fill="#000000">PagesController</text>
<polyline fill="none" stroke="#000000" points="0,-192.5 106.207,-192.5 "/>
<text text-anchor="start" x="8" y="-177.3" font-family="Times,serif" font-size="14.00" fill="#000000">index</text>
<text text-anchor="start" x="8" y="-163.3" font-family="Times,serif" font-size="14.00" fill="#000000">info</text>
<text text-anchor="start" x="8" y="-149.3" font-family="Times,serif" font-size="14.00" fill="#000000">search</text>
<polyline fill="none" stroke="#000000" points="0,-142.5 106.207,-142.5 "/>
<polyline fill="none" stroke="#000000" points="0,-118.5 106.207,-118.5 "/>
<text text-anchor="start" x="8" y="-103.3" font-family="Times,serif" font-size="14.00" fill="#000000">_layout</text>
</g>
<!-- ProductsController -->
<g id="node5" class="node">
<title>ProductsController</title>
<path fill="none" stroke="#000000" d="M316,-32.5C316,-32.5 414.5449,-32.5 414.5449,-32.5 420.5449,-32.5 426.5449,-38.5 426.5449,-44.5 426.5449,-44.5 426.5449,-222.5 426.5449,-222.5 426.5449,-228.5 420.5449,-234.5 414.5449,-234.5 414.5449,-234.5 316,-234.5 316,-234.5 310,-234.5 304,-228.5 304,-222.5 304,-222.5 304,-44.5 304,-44.5 304,-38.5 310,-32.5 316,-32.5"/>
<text text-anchor="middle" x="365.2725" y="-219.3" font-family="Times,serif" font-size="14.00" fill="#000000">ProductsController</text>
<polyline fill="none" stroke="#000000" points="304,-212.5 426.5449,-212.5 "/>
<text text-anchor="start" x="312" y="-197.3" font-family="Times,serif" font-size="14.00" fill="#000000">create</text>
<text text-anchor="start" x="312" y="-183.3" font-family="Times,serif" font-size="14.00" fill="#000000">destroy</text>
<text text-anchor="start" x="312" y="-169.3" font-family="Times,serif" font-size="14.00" fill="#000000">edit</text>
<text text-anchor="start" x="312" y="-155.3" font-family="Times,serif" font-size="14.00" fill="#000000">index</text>
<text text-anchor="start" x="312" y="-141.3" font-family="Times,serif" font-size="14.00" fill="#000000">new</text>
<text text-anchor="start" x="312" y="-127.3" font-family="Times,serif" font-size="14.00" fill="#000000">show</text>
<text text-anchor="start" x="312" y="-113.3" font-family="Times,serif" font-size="14.00" fill="#000000">update</text>
<polyline fill="none" stroke="#000000" points="304,-106.5 426.5449,-106.5 "/>
<polyline fill="none" stroke="#000000" points="304,-82.5 426.5449,-82.5 "/>
<text text-anchor="start" x="312" y="-67.3" font-family="Times,serif" font-size="14.00" fill="#000000">_layout</text>
<text text-anchor="start" x="312" y="-53.3" font-family="Times,serif" font-size="14.00" fill="#000000">product_params</text>
<text text-anchor="start" x="312" y="-39.3" font-family="Times,serif" font-size="14.00" fill="#000000">set_product</text>
</g>
</g>
</svg>
