<?xml version="1.0" encoding="UTF-8" standalone="no"?>
<!DOCTYPE svg PUBLIC "-//W3C//DTD SVG 1.1//EN"
 "http://www.w3.org/Graphics/SVG/1.1/DTD/svg11.dtd">
<!-- Generated by graphviz version 2.40.1 (20161225.0304)
 -->
<!-- Title: controllers_diagram Pages: 1 -->
<svg width="723pt" height="654pt"
 viewBox="0.00 0.00 722.88 654.00" xmlns="http://www.w3.org/2000/svg" xmlns:xlink="http://www.w3.org/1999/xlink">
<g id="graph0" class="graph" transform="scale(1 1) rotate(0) translate(4 650)">
<title>controllers_diagram</title>
<polygon fill="transparent" stroke="transparent" points="-4,4 -4,-650 718.876,-650 718.876,4 -4,4"/>
<!-- _diagram_info -->
<g id="node1" class="node">
<title>_diagram_info</title>
<text text-anchor="start" x="365" y="-109.6" font-family="Times,serif" font-size="13.00" fill="#000000">Controllers diagram</text>
<text text-anchor="start" x="365" y="-96.6" font-family="Times,serif" font-size="13.00" fill="#000000">Date: Apr 05 2018 &#45; 19:57</text>
<text text-anchor="start" x="365" y="-83.6" font-family="Times,serif" font-size="13.00" fill="#000000">Migration version: 20180405225219</text>
<text text-anchor="start" x="365" y="-70.6" font-family="Times,serif" font-size="13.00" fill="#000000">Generated by RailRoady 1.5.3</text>
<text text-anchor="start" x="365" y="-57.6" font-family="Times,serif" font-size="13.00" fill="#000000">http://railroady.prestonlee.com</text>
</g>
<!-- ApplicationController -->
<g id="node2" class="node">
<title>ApplicationController</title>
<path fill="none" stroke="#000000" d="M46,-.5C46,-.5 219.9316,-.5 219.9316,-.5 225.9316,-.5 231.9316,-6.5 231.9316,-12.5 231.9316,-12.5 231.9316,-78.5 231.9316,-78.5 231.9316,-84.5 225.9316,-90.5 219.9316,-90.5 219.9316,-90.5 46,-90.5 46,-90.5 40,-90.5 34,-84.5 34,-78.5 34,-78.5 34,-12.5 34,-12.5 34,-6.5 40,-.5 46,-.5"/>
<text text-anchor="middle" x="132.9658" y="-75.3" font-family="Times,serif" font-size="14.00" fill="#000000">ApplicationController</text>
<polyline fill="none" stroke="#000000" points="34,-68.5 231.9316,-68.5 "/>
<polyline fill="none" stroke="#000000" points="34,-44.5 231.9316,-44.5 "/>
<text text-anchor="start" x="42" y="-29.3" font-family="Times,serif" font-size="14.00" fill="#000000">configure_permitted_parameters</text>
<polyline fill="none" stroke="#000000" points="34,-22.5 231.9316,-22.5 "/>
<text text-anchor="start" x="42" y="-7.3" font-family="Times,serif" font-size="14.00" fill="#000000">_layout</text>
</g>
<!-- CategoriesController -->
<g id="node3" class="node">
<title>CategoriesController</title>
<path fill="none" stroke="#000000" d="M369,-306.5C369,-306.5 478.4141,-306.5 478.4141,-306.5 484.4141,-306.5 490.4141,-312.5 490.4141,-318.5 490.4141,-318.5 490.4141,-496.5 490.4141,-496.5 490.4141,-502.5 484.4141,-508.5 478.4141,-508.5 478.4141,-508.5 369,-508.5 369,-508.5 363,-508.5 357,-502.5 357,-496.5 357,-496.5 357,-318.5 357,-318.5 357,-312.5 363,-306.5 369,-306.5"/>
<text text-anchor="middle" x="423.707" y="-493.3" font-family="Times,serif" font-size="14.00" fill="#000000">CategoriesController</text>
<polyline fill="none" stroke="#000000" points="357,-486.5 490.4141,-486.5 "/>
<text text-anchor="start" x="365" y="-471.3" font-family="Times,serif" font-size="14.00" fill="#000000">create</text>
<text text-anchor="start" x="365" y="-457.3" font-family="Times,serif" font-size="14.00" fill="#000000">destroy</text>
<text text-anchor="start" x="365" y="-443.3" font-family="Times,serif" font-size="14.00" fill="#000000">edit</text>
<text text-anchor="start" x="365" y="-429.3" font-family="Times,serif" font-size="14.00" fill="#000000">index</text>
<text text-anchor="start" x="365" y="-415.3" font-family="Times,serif" font-size="14.00" fill="#000000">new</text>
<text text-anchor="start" x="365" y="-401.3" font-family="Times,serif" font-size="14.00" fill="#000000">show</text>
<text text-anchor="start" x="365" y="-387.3" font-family="Times,serif" font-size="14.00" fill="#000000">update</text>
<polyline fill="none" stroke="#000000" points="357,-380.5 490.4141,-380.5 "/>
<polyline fill="none" stroke="#000000" points="357,-356.5 490.4141,-356.5 "/>
<text text-anchor="start" x="365" y="-341.3" font-family="Times,serif" font-size="14.00" fill="#000000">_layout</text>
<text text-anchor="start" x="365" y="-327.3" font-family="Times,serif" font-size="14.00" fill="#000000">category_params</text>
<text text-anchor="start" x="365" y="-313.3" font-family="Times,serif" font-size="14.00" fill="#000000">set_category</text>
</g>
<!-- PagesController -->
<g id="node4" class="node">
<title>PagesController</title>
<path fill="none" stroke="#000000" d="M233,-527.5C233,-527.5 315.207,-527.5 315.207,-527.5 321.207,-527.5 327.207,-533.5 327.207,-539.5 327.207,-539.5 327.207,-633.5 327.207,-633.5 327.207,-639.5 321.207,-645.5 315.207,-645.5 315.207,-645.5 233,-645.5 233,-645.5 227,-645.5 221,-639.5 221,-633.5 221,-633.5 221,-539.5 221,-539.5 221,-533.5 227,-527.5 233,-527.5"/>
<text text-anchor="middle" x="274.1035" y="-630.3" font-family="Times,serif" font-size="14.00" fill="#000000">PagesController</text>
<polyline fill="none" stroke="#000000" points="221,-623.5 327.207,-623.5 "/>
<text text-anchor="start" x="229" y="-608.3" font-family="Times,serif" font-size="14.00" fill="#000000">index</text>
<text text-anchor="start" x="229" y="-594.3" font-family="Times,serif" font-size="14.00" fill="#000000">info</text>
<text text-anchor="start" x="229" y="-580.3" font-family="Times,serif" font-size="14.00" fill="#000000">search</text>
<polyline fill="none" stroke="#000000" points="221,-573.5 327.207,-573.5 "/>
<polyline fill="none" stroke="#000000" points="221,-549.5 327.207,-549.5 "/>
<text text-anchor="start" x="229" y="-534.3" font-family="Times,serif" font-size="14.00" fill="#000000">_layout</text>
</g>
<!-- User::OmniauthCallbacksController -->
<g id="node5" class="node">
<title>User::OmniauthCallbacksController</title>
<path fill="none" stroke="#000000" d="M114,-408.5C114,-408.5 308.959,-408.5 308.959,-408.5 314.959,-408.5 320.959,-414.5 320.959,-420.5 320.959,-420.5 320.959,-488.5 320.959,-488.5 320.959,-494.5 314.959,-500.5 308.959,-500.5 308.959,-500.5 114,-500.5 114,-500.5 108,-500.5 102,-494.5 102,-488.5 102,-488.5 102,-420.5 102,-420.5 102,-414.5 108,-408.5 114,-408.5"/>
<text text-anchor="middle" x="211.4795" y="-485.3" font-family="Times,serif" font-size="14.00" fill="#000000">User::OmniauthCallbacksController</text>
<polyline fill="none" stroke="#000000" points="102,-478.5 320.959,-478.5 "/>
<polyline fill="none" stroke="#000000" points="102,-454.5 320.959,-454.5 "/>
<polyline fill="none" stroke="#000000" points="102,-430.5 320.959,-430.5 "/>
<text text-anchor="start" x="110" y="-415.3" font-family="Times,serif" font-size="14.00" fill="#000000">_layout</text>
</g>
<!-- User::PasswordsController -->
<g id="node6" class="node">
<title>User::PasswordsController</title>
<path fill="none" stroke="#000000" d="M12,-170.5C12,-170.5 154.876,-170.5 154.876,-170.5 160.876,-170.5 166.876,-176.5 166.876,-182.5 166.876,-182.5 166.876,-250.5 166.876,-250.5 166.876,-256.5 160.876,-262.5 154.876,-262.5 154.876,-262.5 12,-262.5 12,-262.5 6,-262.5 0,-256.5 0,-250.5 0,-250.5 0,-182.5 0,-182.5 0,-176.5 6,-170.5 12,-170.5"/>
<text text-anchor="middle" x="83.438" y="-247.3" font-family="Times,serif" font-size="14.00" fill="#000000">User::PasswordsController</text>
<polyline fill="none" stroke="#000000" points="0,-240.5 166.876,-240.5 "/>
<polyline fill="none" stroke="#000000" points="0,-216.5 166.876,-216.5 "/>
<polyline fill="none" stroke="#000000" points="0,-192.5 166.876,-192.5 "/>
<text text-anchor="start" x="8" y="-177.3" font-family="Times,serif" font-size="14.00" fill="#000000">_layout</text>
</g>
<!-- User::SessionsController -->
<g id="node7" class="node">
<title>User::SessionsController</title>
<path fill="none" stroke="#000000" d="M539,-425.5C539,-425.5 670.9932,-425.5 670.9932,-425.5 676.9932,-425.5 682.9932,-431.5 682.9932,-437.5 682.9932,-437.5 682.9932,-505.5 682.9932,-505.5 682.9932,-511.5 676.9932,-517.5 670.9932,-517.5 670.9932,-517.5 539,-517.5 539,-517.5 533,-517.5 527,-511.5 527,-505.5 527,-505.5 527,-437.5 527,-437.5 527,-431.5 533,-425.5 539,-425.5"/>
<text text-anchor="middle" x="604.9966" y="-502.3" font-family="Times,serif" font-size="14.00" fill="#000000">User::SessionsController</text>
<polyline fill="none" stroke="#000000" points="527,-495.5 682.9932,-495.5 "/>
<polyline fill="none" stroke="#000000" points="527,-471.5 682.9932,-471.5 "/>
<polyline fill="none" stroke="#000000" points="527,-447.5 682.9932,-447.5 "/>
<text text-anchor="start" x="535" y="-432.3" font-family="Times,serif" font-size="14.00" fill="#000000">_layout</text>
</g>
<!-- User::UnlocksController -->
<g id="node8" class="node">
<title>User::UnlocksController</title>
<path fill="none" stroke="#000000" d="M29,-289.5C29,-289.5 159.4209,-289.5 159.4209,-289.5 165.4209,-289.5 171.4209,-295.5 171.4209,-301.5 171.4209,-301.5 171.4209,-369.5 171.4209,-369.5 171.4209,-375.5 165.4209,-381.5 159.4209,-381.5 159.4209,-381.5 29,-381.5 29,-381.5 23,-381.5 17,-375.5 17,-369.5 17,-369.5 17,-301.5 17,-301.5 17,-295.5 23,-289.5 29,-289.5"/>
<text text-anchor="middle" x="94.2104" y="-366.3" font-family="Times,serif" font-size="14.00" fill="#000000">User::UnlocksController</text>
<polyline fill="none" stroke="#000000" points="17,-359.5 171.4209,-359.5 "/>
<polyline fill="none" stroke="#000000" points="17,-335.5 171.4209,-335.5 "/>
<polyline fill="none" stroke="#000000" points="17,-311.5 171.4209,-311.5 "/>
<text text-anchor="start" x="25" y="-296.3" font-family="Times,serif" font-size="14.00" fill="#000000">_layout</text>
</g>
<!-- User::ConfirmationsController -->
<g id="node9" class="node">
<title>User::ConfirmationsController</title>
<path fill="none" stroke="#000000" d="M539,-306.5C539,-306.5 702.876,-306.5 702.876,-306.5 708.876,-306.5 714.876,-312.5 714.876,-318.5 714.876,-318.5 714.876,-386.5 714.876,-386.5 714.876,-392.5 708.876,-398.5 702.876,-398.5 702.876,-398.5 539,-398.5 539,-398.5 533,-398.5 527,-392.5 527,-386.5 527,-386.5 527,-318.5 527,-318.5 527,-312.5 533,-306.5 539,-306.5"/>
<text text-anchor="middle" x="620.938" y="-383.3" font-family="Times,serif" font-size="14.00" fill="#000000">User::ConfirmationsController</text>
<polyline fill="none" stroke="#000000" points="527,-376.5 714.876,-376.5 "/>
<polyline fill="none" stroke="#000000" points="527,-352.5 714.876,-352.5 "/>
<polyline fill="none" stroke="#000000" points="527,-328.5 714.876,-328.5 "/>
<text text-anchor="start" x="535" y="-313.3" font-family="Times,serif" font-size="14.00" fill="#000000">_layout</text>
</g>
<!-- User::RegistrationsController -->
<g id="node10" class="node">
<title>User::RegistrationsController</title>
<path fill="none" stroke="#000000" d="M369,-153.5C369,-153.5 556.1523,-153.5 556.1523,-153.5 562.1523,-153.5 568.1523,-159.5 568.1523,-165.5 568.1523,-165.5 568.1523,-257.5 568.1523,-257.5 568.1523,-263.5 562.1523,-269.5 556.1523,-269.5 556.1523,-269.5 369,-269.5 369,-269.5 363,-269.5 357,-263.5 357,-257.5 357,-257.5 357,-165.5 357,-165.5 357,-159.5 363,-153.5 369,-153.5"/>
<text text-anchor="middle" x="462.5762" y="-254.3" font-family="Times,serif" font-size="14.00" fill="#000000">User::RegistrationsController</text>
<polyline fill="none" stroke="#000000" points="357,-247.5 568.1523,-247.5 "/>
<text text-anchor="start" x="365" y="-232.3" font-family="Times,serif" font-size="14.00" fill="#000000">update</text>
<text text-anchor="start" x="365" y="-218.3" font-family="Times,serif" font-size="14.00" fill="#000000">upgrade</text>
<polyline fill="none" stroke="#000000" points="357,-211.5 568.1523,-211.5 "/>
<text text-anchor="start" x="365" y="-196.3" font-family="Times,serif" font-size="14.00" fill="#000000">configure_account_update_params</text>
<text text-anchor="start" x="365" y="-182.3" font-family="Times,serif" font-size="14.00" fill="#000000">configure_sign_up_params</text>
<polyline fill="none" stroke="#000000" points="357,-175.5 568.1523,-175.5 "/>
<text text-anchor="start" x="365" y="-160.3" font-family="Times,serif" font-size="14.00" fill="#000000">_layout</text>
</g>
<!-- ProductsController -->
<g id="node11" class="node">
<title>ProductsController</title>
<path fill="none" stroke="#000000" d="M216,-119.5C216,-119.5 314.5449,-119.5 314.5449,-119.5 320.5449,-119.5 326.5449,-125.5 326.5449,-131.5 326.5449,-131.5 326.5449,-323.5 326.5449,-323.5 326.5449,-329.5 320.5449,-335.5 314.5449,-335.5 314.5449,-335.5 216,-335.5 216,-335.5 210,-335.5 204,-329.5 204,-323.5 204,-323.5 204,-131.5 204,-131.5 204,-125.5 210,-119.5 216,-119.5"/>
<text text-anchor="middle" x="265.2725" y="-320.3" font-family="Times,serif" font-size="14.00" fill="#000000">ProductsController</text>
<polyline fill="none" stroke="#000000" points="204,-313.5 326.5449,-313.5 "/>
<text text-anchor="start" x="212" y="-298.3" font-family="Times,serif" font-size="14.00" fill="#000000">create</text>
<text text-anchor="start" x="212" y="-284.3" font-family="Times,serif" font-size="14.00" fill="#000000">destroy</text>
<text text-anchor="start" x="212" y="-270.3" font-family="Times,serif" font-size="14.00" fill="#000000">edit</text>
<text text-anchor="start" x="212" y="-256.3" font-family="Times,serif" font-size="14.00" fill="#000000">index</text>
<text text-anchor="start" x="212" y="-242.3" font-family="Times,serif" font-size="14.00" fill="#000000">new</text>
<text text-anchor="start" x="212" y="-228.3" font-family="Times,serif" font-size="14.00" fill="#000000">show</text>
<text text-anchor="start" x="212" y="-214.3" font-family="Times,serif" font-size="14.00" fill="#000000">update</text>
<polyline fill="none" stroke="#000000" points="204,-207.5 326.5449,-207.5 "/>
<polyline fill="none" stroke="#000000" points="204,-183.5 326.5449,-183.5 "/>
<text text-anchor="start" x="212" y="-168.3" font-family="Times,serif" font-size="14.00" fill="#000000">_layout</text>
<text text-anchor="start" x="212" y="-154.3" font-family="Times,serif" font-size="14.00" fill="#000000">product_params</text>
<text text-anchor="start" x="212" y="-140.3" font-family="Times,serif" font-size="14.00" fill="#000000">select_input</text>
<text text-anchor="start" x="212" y="-126.3" font-family="Times,serif" font-size="14.00" fill="#000000">set_product</text>
</g>
</g>
</svg>
