<?xml version="1.0" encoding="UTF-8" standalone="no"?>
<!DOCTYPE svg PUBLIC "-//W3C//DTD SVG 1.1//EN"
 "http://www.w3.org/Graphics/SVG/1.1/DTD/svg11.dtd">
<!-- Generated by graphviz version 2.38.0 (20140413.2041)
 -->
<!-- Title: models_diagram Pages: 1 -->
<svg width="1512pt" height="671pt"
 viewBox="0.00 0.00 1512.34 671.00" xmlns="http://www.w3.org/2000/svg" xmlns:xlink="http://www.w3.org/1999/xlink">
<g id="graph0" class="graph" transform="scale(1 1) rotate(0) translate(4 667)">
<title>models_diagram</title>
<polygon fill="none" stroke="none" points="-4,4 -4,-667 1508.34,-667 1508.34,4 -4,4"/>
<!-- _diagram_info -->
<g id="node1" class="node"><title>_diagram_info</title>
<text text-anchor="start" x="8" y="-521.6" font-family="Times,serif" font-size="13.00">Models diagram</text>
<text text-anchor="start" x="8" y="-507.6" font-family="Times,serif" font-size="13.00">Date: Mar 07 2018 &#45; 12:31</text>
<text text-anchor="start" x="8" y="-493.6" font-family="Times,serif" font-size="13.00">Migration version: 20180307152143</text>
<text text-anchor="start" x="8" y="-479.6" font-family="Times,serif" font-size="13.00">Generated by RailRoady 1.5.3</text>
<text text-anchor="start" x="8" y="-465.6" font-family="Times,serif" font-size="13.00">http://railroady.prestonlee.com</text>
</g>
<!-- Photo -->
<g id="node2" class="node"><title>Photo</title>
<path fill="none" stroke="black" d="M803,-0.5C803,-0.5 1023,-0.5 1023,-0.5 1029,-0.5 1035,-6.5 1035,-12.5 1035,-12.5 1035,-94.5 1035,-94.5 1035,-100.5 1029,-106.5 1023,-106.5 1023,-106.5 803,-106.5 803,-106.5 797,-106.5 791,-100.5 791,-94.5 791,-94.5 791,-12.5 791,-12.5 791,-6.5 797,-0.5 803,-0.5"/>
<text text-anchor="middle" x="913" y="-91.3" font-family="Times,serif" font-size="14.00">Photo</text>
<polyline fill="none" stroke="black" points="791,-83.5 1035,-83.5 "/>
<text text-anchor="start" x="799" y="-68.3" font-family="Times,serif" font-size="14.00">id :bigint</text>
<text text-anchor="start" x="799" y="-53.3" font-family="Times,serif" font-size="14.00">image :character varying</text>
<text text-anchor="start" x="799" y="-38.3" font-family="Times,serif" font-size="14.00">product_id :bigint</text>
<text text-anchor="start" x="799" y="-23.3" font-family="Times,serif" font-size="14.00">created_at :timestamp without time zone</text>
<text text-anchor="start" x="799" y="-8.3" font-family="Times,serif" font-size="14.00">updated_at :timestamp without time zone</text>
</g>
<!-- Category -->
<g id="node3" class="node"><title>Category</title>
<path fill="none" stroke="black" d="M244,-451.5C244,-451.5 464,-451.5 464,-451.5 470,-451.5 476,-457.5 476,-463.5 476,-463.5 476,-530.5 476,-530.5 476,-536.5 470,-542.5 464,-542.5 464,-542.5 244,-542.5 244,-542.5 238,-542.5 232,-536.5 232,-530.5 232,-530.5 232,-463.5 232,-463.5 232,-457.5 238,-451.5 244,-451.5"/>
<text text-anchor="middle" x="354" y="-527.3" font-family="Times,serif" font-size="14.00">Category</text>
<polyline fill="none" stroke="black" points="232,-519.5 476,-519.5 "/>
<text text-anchor="start" x="240" y="-504.3" font-family="Times,serif" font-size="14.00">id :bigint</text>
<text text-anchor="start" x="240" y="-489.3" font-family="Times,serif" font-size="14.00">name :character varying</text>
<text text-anchor="start" x="240" y="-474.3" font-family="Times,serif" font-size="14.00">created_at :timestamp without time zone</text>
<text text-anchor="start" x="240" y="-459.3" font-family="Times,serif" font-size="14.00">updated_at :timestamp without time zone</text>
</g>
<!-- Product -->
<g id="node7" class="node"><title>Product</title>
<path fill="none" stroke="black" d="M803,-143.5C803,-143.5 1023,-143.5 1023,-143.5 1029,-143.5 1035,-149.5 1035,-155.5 1035,-155.5 1035,-282.5 1035,-282.5 1035,-288.5 1029,-294.5 1023,-294.5 1023,-294.5 803,-294.5 803,-294.5 797,-294.5 791,-288.5 791,-282.5 791,-282.5 791,-155.5 791,-155.5 791,-149.5 797,-143.5 803,-143.5"/>
<text text-anchor="middle" x="913" y="-279.3" font-family="Times,serif" font-size="14.00">Product</text>
<polyline fill="none" stroke="black" points="791,-271.5 1035,-271.5 "/>
<text text-anchor="start" x="799" y="-256.3" font-family="Times,serif" font-size="14.00">id :bigint</text>
<text text-anchor="start" x="799" y="-241.3" font-family="Times,serif" font-size="14.00">name :character varying</text>
<text text-anchor="start" x="799" y="-226.3" font-family="Times,serif" font-size="14.00">description :text</text>
<text text-anchor="start" x="799" y="-211.3" font-family="Times,serif" font-size="14.00">price :integer</text>
<text text-anchor="start" x="799" y="-196.3" font-family="Times,serif" font-size="14.00">created_at :timestamp without time zone</text>
<text text-anchor="start" x="799" y="-181.3" font-family="Times,serif" font-size="14.00">updated_at :timestamp without time zone</text>
<text text-anchor="start" x="799" y="-166.3" font-family="Times,serif" font-size="14.00">category_id :bigint</text>
<text text-anchor="start" x="799" y="-151.3" font-family="Times,serif" font-size="14.00">brand_id :bigint</text>
</g>
<!-- Category&#45;&gt;Product -->
<g id="edge1" class="edge"><title>Category&#45;&gt;Product</title>
<path fill="none" stroke="#582aa9" d="M382.654,-444.219C405.669,-407.328 441.31,-359.422 485,-331 573.845,-273.202 691.358,-245.461 780.77,-232.168"/>
<ellipse fill="none" stroke="#582aa9" cx="380.313" cy="-448.033" rx="4.00002" ry="4.00002"/>
<polygon fill="#582aa9" stroke="#582aa9" points="780.806,-232.163 791.347,-235.187 785.755,-231.448 790.703,-230.733 790.703,-230.733 790.703,-230.733 785.755,-231.448 790.06,-226.279 780.806,-232.163 780.806,-232.163"/>
</g>
<!-- Brand -->
<g id="node4" class="node"><title>Brand</title>
<path fill="none" stroke="black" d="M506,-451.5C506,-451.5 726,-451.5 726,-451.5 732,-451.5 738,-457.5 738,-463.5 738,-463.5 738,-530.5 738,-530.5 738,-536.5 732,-542.5 726,-542.5 726,-542.5 506,-542.5 506,-542.5 500,-542.5 494,-536.5 494,-530.5 494,-530.5 494,-463.5 494,-463.5 494,-457.5 500,-451.5 506,-451.5"/>
<text text-anchor="middle" x="616" y="-527.3" font-family="Times,serif" font-size="14.00">Brand</text>
<polyline fill="none" stroke="black" points="494,-519.5 738,-519.5 "/>
<text text-anchor="start" x="502" y="-504.3" font-family="Times,serif" font-size="14.00">id :bigint</text>
<text text-anchor="start" x="502" y="-489.3" font-family="Times,serif" font-size="14.00">name :character varying</text>
<text text-anchor="start" x="502" y="-474.3" font-family="Times,serif" font-size="14.00">created_at :timestamp without time zone</text>
<text text-anchor="start" x="502" y="-459.3" font-family="Times,serif" font-size="14.00">updated_at :timestamp without time zone</text>
</g>
<!-- Brand&#45;&gt;Product -->
<g id="edge2" class="edge"><title>Brand&#45;&gt;Product</title>
<path fill="none" stroke="#f7b21d" d="M650.897,-444.512C675.645,-410.127 710.933,-365.126 748,-331 759.251,-320.641 771.549,-310.544 784.194,-300.928"/>
<ellipse fill="none" stroke="#f7b21d" cx="648.415" cy="-447.986" rx="4.00002" ry="4.00002"/>
<polygon fill="#f7b21d" stroke="#f7b21d" points="784.539,-300.67 795.242,-298.284 788.542,-297.675 792.546,-294.68 792.546,-294.68 792.546,-294.68 788.542,-297.675 789.851,-291.077 784.539,-300.67 784.539,-300.67"/>
</g>
<!-- User -->
<g id="node5" class="node"><title>User</title>
<path fill="none" stroke="black" d="M768.5,-331.5C768.5,-331.5 1057.5,-331.5 1057.5,-331.5 1063.5,-331.5 1069.5,-337.5 1069.5,-343.5 1069.5,-343.5 1069.5,-650.5 1069.5,-650.5 1069.5,-656.5 1063.5,-662.5 1057.5,-662.5 1057.5,-662.5 768.5,-662.5 768.5,-662.5 762.5,-662.5 756.5,-656.5 756.5,-650.5 756.5,-650.5 756.5,-343.5 756.5,-343.5 756.5,-337.5 762.5,-331.5 768.5,-331.5"/>
<text text-anchor="middle" x="913" y="-647.3" font-family="Times,serif" font-size="14.00">User</text>
<polyline fill="none" stroke="black" points="756.5,-639.5 1069.5,-639.5 "/>
<text text-anchor="start" x="764.5" y="-624.3" font-family="Times,serif" font-size="14.00">id :bigint</text>
<text text-anchor="start" x="764.5" y="-609.3" font-family="Times,serif" font-size="14.00">email :character varying</text>
<text text-anchor="start" x="764.5" y="-594.3" font-family="Times,serif" font-size="14.00">encrypted_password :character varying</text>
<text text-anchor="start" x="764.5" y="-579.3" font-family="Times,serif" font-size="14.00">reset_password_token :character varying</text>
<text text-anchor="start" x="764.5" y="-564.3" font-family="Times,serif" font-size="14.00">reset_password_sent_at :timestamp without time zone</text>
<text text-anchor="start" x="764.5" y="-549.3" font-family="Times,serif" font-size="14.00">remember_created_at :timestamp without time zone</text>
<text text-anchor="start" x="764.5" y="-534.3" font-family="Times,serif" font-size="14.00">sign_in_count :integer</text>
<text text-anchor="start" x="764.5" y="-519.3" font-family="Times,serif" font-size="14.00">current_sign_in_at :timestamp without time zone</text>
<text text-anchor="start" x="764.5" y="-504.3" font-family="Times,serif" font-size="14.00">last_sign_in_at :timestamp without time zone</text>
<text text-anchor="start" x="764.5" y="-489.3" font-family="Times,serif" font-size="14.00">current_sign_in_ip :inet</text>
<text text-anchor="start" x="764.5" y="-474.3" font-family="Times,serif" font-size="14.00">last_sign_in_ip :inet</text>
<text text-anchor="start" x="764.5" y="-459.3" font-family="Times,serif" font-size="14.00">name :character varying</text>
<text text-anchor="start" x="764.5" y="-444.3" font-family="Times,serif" font-size="14.00">phone :character varying</text>
<text text-anchor="start" x="764.5" y="-429.3" font-family="Times,serif" font-size="14.00">profile_pic :character varying</text>
<text text-anchor="start" x="764.5" y="-414.3" font-family="Times,serif" font-size="14.00">banner_pic :character varying</text>
<text text-anchor="start" x="764.5" y="-399.3" font-family="Times,serif" font-size="14.00">address :character varying</text>
<text text-anchor="start" x="764.5" y="-384.3" font-family="Times,serif" font-size="14.00">type :character varying</text>
<text text-anchor="start" x="764.5" y="-369.3" font-family="Times,serif" font-size="14.00">description :text</text>
<text text-anchor="start" x="764.5" y="-354.3" font-family="Times,serif" font-size="14.00">created_at :timestamp without time zone</text>
<text text-anchor="start" x="764.5" y="-339.3" font-family="Times,serif" font-size="14.00">updated_at :timestamp without time zone</text>
</g>
<!-- User&#45;&gt;Product -->
<g id="edge3" class="edge"><title>User&#45;&gt;Product</title>
<path fill="none" stroke="#af2faf" d="M913,-323.18C913,-317.057 913,-311.031 913,-305.156"/>
<ellipse fill="none" stroke="#af2faf" cx="913" cy="-327.464" rx="4" ry="4"/>
<polygon fill="#af2faf" stroke="#af2faf" points="913,-304.755 917.5,-294.755 913,-299.755 913,-294.755 913,-294.755 913,-294.755 913,-299.755 908.5,-294.755 913,-304.755 913,-304.755"/>
</g>
<!-- Tag -->
<g id="node6" class="node"><title>Tag</title>
<path fill="none" stroke="black" d="M1100,-451.5C1100,-451.5 1320,-451.5 1320,-451.5 1326,-451.5 1332,-457.5 1332,-463.5 1332,-463.5 1332,-530.5 1332,-530.5 1332,-536.5 1326,-542.5 1320,-542.5 1320,-542.5 1100,-542.5 1100,-542.5 1094,-542.5 1088,-536.5 1088,-530.5 1088,-530.5 1088,-463.5 1088,-463.5 1088,-457.5 1094,-451.5 1100,-451.5"/>
<text text-anchor="middle" x="1210" y="-527.3" font-family="Times,serif" font-size="14.00">Tag</text>
<polyline fill="none" stroke="black" points="1088,-519.5 1332,-519.5 "/>
<text text-anchor="start" x="1096" y="-504.3" font-family="Times,serif" font-size="14.00">id :bigint</text>
<text text-anchor="start" x="1096" y="-489.3" font-family="Times,serif" font-size="14.00">name :character varying</text>
<text text-anchor="start" x="1096" y="-474.3" font-family="Times,serif" font-size="14.00">created_at :timestamp without time zone</text>
<text text-anchor="start" x="1096" y="-459.3" font-family="Times,serif" font-size="14.00">updated_at :timestamp without time zone</text>
</g>
<!-- Tag&#45;&gt;Product -->
<g id="edge5" class="edge"><title>Tag&#45;&gt;Product</title>
<path fill="none" stroke="#60f6a6" d="M1174.23,-442.729C1149.78,-408.552 1115.33,-364.475 1079,-331 1067.6,-320.494 1055.12,-310.271 1042.28,-300.554"/>
<polygon fill="#60f6a6" stroke="#60f6a6" points="1174.45,-443.032 1176.56,-453.793 1177.34,-447.112 1180.23,-451.192 1180.23,-451.192 1180.23,-451.192 1177.34,-447.112 1183.9,-448.59 1174.45,-443.032 1174.45,-443.032"/>
<polygon fill="#60f6a6" stroke="#60f6a6" points="1042.26,-300.543 1036.93,-290.961 1038.25,-297.557 1034.24,-294.57 1034.24,-294.57 1034.24,-294.57 1038.25,-297.557 1031.55,-298.179 1042.26,-300.543 1042.26,-300.543"/>
</g>
<!-- Spec -->
<g id="node9" class="node"><title>Spec</title>
<path fill="none" stroke="black" d="M1074,-0.5C1074,-0.5 1294,-0.5 1294,-0.5 1300,-0.5 1306,-6.5 1306,-12.5 1306,-12.5 1306,-94.5 1306,-94.5 1306,-100.5 1300,-106.5 1294,-106.5 1294,-106.5 1074,-106.5 1074,-106.5 1068,-106.5 1062,-100.5 1062,-94.5 1062,-94.5 1062,-12.5 1062,-12.5 1062,-6.5 1068,-0.5 1074,-0.5"/>
<text text-anchor="middle" x="1184" y="-91.3" font-family="Times,serif" font-size="14.00">Spec</text>
<polyline fill="none" stroke="black" points="1062,-83.5 1306,-83.5 "/>
<text text-anchor="start" x="1070" y="-68.3" font-family="Times,serif" font-size="14.00">id :bigint</text>
<text text-anchor="start" x="1070" y="-53.3" font-family="Times,serif" font-size="14.00">product_id :bigint</text>
<text text-anchor="start" x="1070" y="-38.3" font-family="Times,serif" font-size="14.00">tag_id :bigint</text>
<text text-anchor="start" x="1070" y="-23.3" font-family="Times,serif" font-size="14.00">created_at :timestamp without time zone</text>
<text text-anchor="start" x="1070" y="-8.3" font-family="Times,serif" font-size="14.00">updated_at :timestamp without time zone</text>
</g>
<!-- Tag&#45;&gt;Spec -->
<g id="edge4" class="edge"><title>Tag&#45;&gt;Spec</title>
<path fill="none" stroke="#768b2a" d="M1206.88,-442.996C1202.05,-360.98 1192.79,-203.705 1187.65,-116.524"/>
<ellipse fill="none" stroke="#768b2a" cx="1207.13" cy="-447.244" rx="4" ry="4"/>
<polygon fill="#768b2a" stroke="#768b2a" points="1187.65,-116.49 1191.55,-106.243 1187.36,-111.499 1187.06,-106.508 1187.06,-106.508 1187.06,-106.508 1187.36,-111.499 1182.57,-106.772 1187.65,-116.49 1187.65,-116.49"/>
</g>
<!-- Product&#45;&gt;Photo -->
<g id="edge6" class="edge"><title>Product&#45;&gt;Photo</title>
<path fill="none" stroke="#f2fb33" d="M913,-135.227C913,-128.967 913,-122.716 913,-116.619"/>
<ellipse fill="none" stroke="#f2fb33" cx="913" cy="-139.427" rx="4" ry="4"/>
<polygon fill="#f2fb33" stroke="#f2fb33" points="913,-116.531 917.5,-106.531 913,-111.531 913,-106.531 913,-106.531 913,-106.531 913,-111.531 908.5,-106.531 913,-116.531 913,-116.531"/>
</g>
<!-- Product&#45;&gt;Spec -->
<g id="edge7" class="edge"><title>Product&#45;&gt;Spec</title>
<path fill="none" stroke="#3a1ffe" d="M1041.95,-140.201C1057.69,-130.704 1073.55,-121.135 1088.68,-112.009"/>
<ellipse fill="none" stroke="#3a1ffe" cx="1038.45" cy="-142.315" rx="4.00002" ry="4.00002"/>
<polygon fill="#3a1ffe" stroke="#3a1ffe" points="1088.93,-111.857 1099.82,-110.544 1093.21,-109.274 1097.49,-106.691 1097.49,-106.691 1097.49,-106.691 1093.21,-109.274 1095.17,-102.838 1088.93,-111.857 1088.93,-111.857"/>
</g>
<!-- ApplicationRecord -->
<g id="node8" class="node"><title>ApplicationRecord</title>
<ellipse fill="none" stroke="black" cx="1427" cy="-497" rx="77.1866" ry="18"/>
<text text-anchor="middle" x="1427" y="-493.3" font-family="Times,serif" font-size="14.00">ApplicationRecord</text>
</g>
</g>
</svg>
