<?xml version="1.0" encoding="UTF-8" standalone="no"?>
<!DOCTYPE svg PUBLIC "-//W3C//DTD SVG 1.1//EN"
 "http://www.w3.org/Graphics/SVG/1.1/DTD/svg11.dtd">
<!-- Generated by graphviz version 2.40.1 (20161225.0304)
 -->
<!-- Title: models_diagram Pages: 1 -->
<svg width="1523pt" height="663pt"
 viewBox="0.00 0.00 1523.08 663.00" xmlns="http://www.w3.org/2000/svg" xmlns:xlink="http://www.w3.org/1999/xlink">
<g id="graph0" class="graph" transform="scale(1 1) rotate(0) translate(4 659)">
<title>models_diagram</title>
<polygon fill="transparent" stroke="transparent" points="-4,4 -4,-659 1519.0835,-659 1519.0835,4 -4,4"/>
<!-- _diagram_info -->
<g id="node1" class="node">
<title>_diagram_info</title>
<text text-anchor="start" x="8" y="-521.6" font-family="Times,serif" font-size="13.00" fill="#000000">Models diagram</text>
<text text-anchor="start" x="8" y="-508.6" font-family="Times,serif" font-size="13.00" fill="#000000">Date: Apr 05 2018 &#45; 19:57</text>
<text text-anchor="start" x="8" y="-495.6" font-family="Times,serif" font-size="13.00" fill="#000000">Migration version: 20180405225219</text>
<text text-anchor="start" x="8" y="-482.6" font-family="Times,serif" font-size="13.00" fill="#000000">Generated by RailRoady 1.5.3</text>
<text text-anchor="start" x="8" y="-469.6" font-family="Times,serif" font-size="13.00" fill="#000000">http://railroady.prestonlee.com</text>
</g>
<!-- Brand -->
<g id="node2" class="node">
<title>Brand</title>
<path fill="none" stroke="#000000" d="M503.8254,-456.5C503.8254,-456.5 727.55,-456.5 727.55,-456.5 733.55,-456.5 739.55,-462.5 739.55,-468.5 739.55,-468.5 739.55,-530.5 739.55,-530.5 739.55,-536.5 733.55,-542.5 727.55,-542.5 727.55,-542.5 503.8254,-542.5 503.8254,-542.5 497.8254,-542.5 491.8254,-536.5 491.8254,-530.5 491.8254,-530.5 491.8254,-468.5 491.8254,-468.5 491.8254,-462.5 497.8254,-456.5 503.8254,-456.5"/>
<text text-anchor="middle" x="615.6877" y="-527.3" font-family="Times,serif" font-size="14.00" fill="#000000">Brand</text>
<polyline fill="none" stroke="#000000" points="491.8254,-520.5 739.55,-520.5 "/>
<text text-anchor="start" x="499.8254" y="-505.3" font-family="Times,serif" font-size="14.00" fill="#000000">id :bigint</text>
<text text-anchor="start" x="499.8254" y="-491.3" font-family="Times,serif" font-size="14.00" fill="#000000">name :character varying</text>
<text text-anchor="start" x="499.8254" y="-477.3" font-family="Times,serif" font-size="14.00" fill="#000000">created_at :timestamp without time zone</text>
<text text-anchor="start" x="499.8254" y="-463.3" font-family="Times,serif" font-size="14.00" fill="#000000">updated_at :timestamp without time zone</text>
</g>
<!-- Product -->
<g id="node5" class="node">
<title>Product</title>
<path fill="none" stroke="#000000" d="M578.8254,-151.5C578.8254,-151.5 802.55,-151.5 802.55,-151.5 808.55,-151.5 814.55,-157.5 814.55,-163.5 814.55,-163.5 814.55,-295.5 814.55,-295.5 814.55,-301.5 808.55,-307.5 802.55,-307.5 802.55,-307.5 578.8254,-307.5 578.8254,-307.5 572.8254,-307.5 566.8254,-301.5 566.8254,-295.5 566.8254,-295.5 566.8254,-163.5 566.8254,-163.5 566.8254,-157.5 572.8254,-151.5 578.8254,-151.5"/>
<text text-anchor="middle" x="690.6877" y="-292.3" font-family="Times,serif" font-size="14.00" fill="#000000">Product</text>
<polyline fill="none" stroke="#000000" points="566.8254,-285.5 814.55,-285.5 "/>
<text text-anchor="start" x="574.8254" y="-270.3" font-family="Times,serif" font-size="14.00" fill="#000000">user_id :bigint</text>
<text text-anchor="start" x="574.8254" y="-256.3" font-family="Times,serif" font-size="14.00" fill="#000000">name :character varying</text>
<text text-anchor="start" x="574.8254" y="-242.3" font-family="Times,serif" font-size="14.00" fill="#000000">description :text</text>
<text text-anchor="start" x="574.8254" y="-228.3" font-family="Times,serif" font-size="14.00" fill="#000000">price :integer</text>
<text text-anchor="start" x="574.8254" y="-214.3" font-family="Times,serif" font-size="14.00" fill="#000000">created_at :timestamp without time zone</text>
<text text-anchor="start" x="574.8254" y="-200.3" font-family="Times,serif" font-size="14.00" fill="#000000">updated_at :timestamp without time zone</text>
<text text-anchor="start" x="574.8254" y="-186.3" font-family="Times,serif" font-size="14.00" fill="#000000">category_id :bigint</text>
<text text-anchor="start" x="574.8254" y="-172.3" font-family="Times,serif" font-size="14.00" fill="#000000">brand_id :bigint</text>
<text text-anchor="start" x="574.8254" y="-158.3" font-family="Times,serif" font-size="14.00" fill="#000000">id :bigint</text>
</g>
<!-- Brand&#45;&gt;Product -->
<g id="edge1" class="edge">
<title>Brand&#45;&gt;Product</title>
<path fill="none" stroke="#0e249c" d="M629.8011,-448.6917C640.0684,-411.7296 654.2286,-360.753 666.3096,-317.2613"/>
<ellipse fill="none" stroke="#0e249c" cx="628.7253" cy="-452.5651" rx="4" ry="4"/>
<polygon fill="#0e249c" stroke="#0e249c" points="666.3359,-317.1663 673.3483,-308.7356 667.6742,-312.3487 669.0124,-307.5311 669.0124,-307.5311 669.0124,-307.5311 667.6742,-312.3487 664.6766,-306.3267 666.3359,-317.1663 666.3359,-317.1663"/>
</g>
<!-- Category -->
<g id="node3" class="node">
<title>Category</title>
<path fill="none" stroke="#000000" d="M769.8254,-456.5C769.8254,-456.5 993.55,-456.5 993.55,-456.5 999.55,-456.5 1005.55,-462.5 1005.55,-468.5 1005.55,-468.5 1005.55,-530.5 1005.55,-530.5 1005.55,-536.5 999.55,-542.5 993.55,-542.5 993.55,-542.5 769.8254,-542.5 769.8254,-542.5 763.8254,-542.5 757.8254,-536.5 757.8254,-530.5 757.8254,-530.5 757.8254,-468.5 757.8254,-468.5 757.8254,-462.5 763.8254,-456.5 769.8254,-456.5"/>
<text text-anchor="middle" x="881.6877" y="-527.3" font-family="Times,serif" font-size="14.00" fill="#000000">Category</text>
<polyline fill="none" stroke="#000000" points="757.8254,-520.5 1005.55,-520.5 "/>
<text text-anchor="start" x="765.8254" y="-505.3" font-family="Times,serif" font-size="14.00" fill="#000000">id :bigint</text>
<text text-anchor="start" x="765.8254" y="-491.3" font-family="Times,serif" font-size="14.00" fill="#000000">name :character varying</text>
<text text-anchor="start" x="765.8254" y="-477.3" font-family="Times,serif" font-size="14.00" fill="#000000">created_at :timestamp without time zone</text>
<text text-anchor="start" x="765.8254" y="-463.3" font-family="Times,serif" font-size="14.00" fill="#000000">updated_at :timestamp without time zone</text>
</g>
<!-- Category&#45;&gt;Product -->
<g id="edge2" class="edge">
<title>Category&#45;&gt;Product</title>
<path fill="none" stroke="#f9d099" d="M846.4463,-449.6823C819.9865,-412.2784 783.0925,-360.1245 751.8529,-315.9638"/>
<ellipse fill="none" stroke="#f9d099" cx="848.902" cy="-453.1536" rx="4" ry="4"/>
<polygon fill="#f9d099" stroke="#f9d099" points="751.6627,-315.695 749.5613,-304.9323 748.7751,-311.613 745.8875,-307.5311 745.8875,-307.5311 745.8875,-307.5311 748.7751,-311.613 742.2138,-310.13 751.6627,-315.695 751.6627,-315.695"/>
</g>
<!-- Tag -->
<g id="node4" class="node">
<title>Tag</title>
<path fill="none" stroke="#000000" d="M237.8254,-456.5C237.8254,-456.5 461.55,-456.5 461.55,-456.5 467.55,-456.5 473.55,-462.5 473.55,-468.5 473.55,-468.5 473.55,-530.5 473.55,-530.5 473.55,-536.5 467.55,-542.5 461.55,-542.5 461.55,-542.5 237.8254,-542.5 237.8254,-542.5 231.8254,-542.5 225.8254,-536.5 225.8254,-530.5 225.8254,-530.5 225.8254,-468.5 225.8254,-468.5 225.8254,-462.5 231.8254,-456.5 237.8254,-456.5"/>
<text text-anchor="middle" x="349.6877" y="-527.3" font-family="Times,serif" font-size="14.00" fill="#000000">Tag</text>
<polyline fill="none" stroke="#000000" points="225.8254,-520.5 473.55,-520.5 "/>
<text text-anchor="start" x="233.8254" y="-505.3" font-family="Times,serif" font-size="14.00" fill="#000000">id :bigint</text>
<text text-anchor="start" x="233.8254" y="-491.3" font-family="Times,serif" font-size="14.00" fill="#000000">name :character varying</text>
<text text-anchor="start" x="233.8254" y="-477.3" font-family="Times,serif" font-size="14.00" fill="#000000">created_at :timestamp without time zone</text>
<text text-anchor="start" x="233.8254" y="-463.3" font-family="Times,serif" font-size="14.00" fill="#000000">updated_at :timestamp without time zone</text>
</g>
<!-- Tag&#45;&gt;Product -->
<g id="edge4" class="edge">
<title>Tag&#45;&gt;Product</title>
<path fill="none" stroke="#fc5b6c" d="M386.0343,-448.1185C410.7527,-415.6128 445.6064,-374.1844 482.6877,-344 505.5216,-325.4132 531.8056,-308.2848 557.8369,-293.248"/>
<polygon fill="#fc5b6c" stroke="#fc5b6c" points="385.9836,-448.1859 376.3766,-453.4734 382.9783,-452.182 379.9731,-456.1781 379.9731,-456.1781 379.9731,-456.1781 382.9783,-452.182 383.5696,-458.8828 385.9836,-448.1859 385.9836,-448.1859"/>
<polygon fill="#fc5b6c" stroke="#fc5b6c" points="557.96,-293.178 568.8767,-292.1401 562.305,-290.7038 566.6499,-288.2296 566.6499,-288.2296 566.6499,-288.2296 562.305,-290.7038 564.4232,-284.3192 557.96,-293.178 557.96,-293.178"/>
</g>
<!-- Spec -->
<g id="node7" class="node">
<title>Spec</title>
<path fill="none" stroke="#000000" d="M312.8254,-7.5C312.8254,-7.5 536.55,-7.5 536.55,-7.5 542.55,-7.5 548.55,-13.5 548.55,-19.5 548.55,-19.5 548.55,-95.5 548.55,-95.5 548.55,-101.5 542.55,-107.5 536.55,-107.5 536.55,-107.5 312.8254,-107.5 312.8254,-107.5 306.8254,-107.5 300.8254,-101.5 300.8254,-95.5 300.8254,-95.5 300.8254,-19.5 300.8254,-19.5 300.8254,-13.5 306.8254,-7.5 312.8254,-7.5"/>
<text text-anchor="middle" x="424.6877" y="-92.3" font-family="Times,serif" font-size="14.00" fill="#000000">Spec</text>
<polyline fill="none" stroke="#000000" points="300.8254,-85.5 548.55,-85.5 "/>
<text text-anchor="start" x="308.8254" y="-70.3" font-family="Times,serif" font-size="14.00" fill="#000000">id :bigint</text>
<text text-anchor="start" x="308.8254" y="-56.3" font-family="Times,serif" font-size="14.00" fill="#000000">product_id :bigint</text>
<text text-anchor="start" x="308.8254" y="-42.3" font-family="Times,serif" font-size="14.00" fill="#000000">tag_id :bigint</text>
<text text-anchor="start" x="308.8254" y="-28.3" font-family="Times,serif" font-size="14.00" fill="#000000">created_at :timestamp without time zone</text>
<text text-anchor="start" x="308.8254" y="-14.3" font-family="Times,serif" font-size="14.00" fill="#000000">updated_at :timestamp without time zone</text>
</g>
<!-- Tag&#45;&gt;Spec -->
<g id="edge3" class="edge">
<title>Tag&#45;&gt;Spec</title>
<path fill="none" stroke="#0cf6cf" d="M358.3723,-448.3188C372.3161,-366.1437 399.6334,-205.1533 414.485,-117.628"/>
<ellipse fill="none" stroke="#0cf6cf" cx="357.6848" cy="-452.3708" rx="4" ry="4"/>
<polygon fill="#0cf6cf" stroke="#0cf6cf" points="414.5159,-117.4456 420.6255,-108.3394 415.3524,-112.5161 416.1889,-107.5866 416.1889,-107.5866 416.1889,-107.5866 415.3524,-112.5161 411.7523,-106.8337 414.5159,-117.4456 414.5159,-117.4456"/>
</g>
<!-- Photo -->
<g id="node6" class="node">
<title>Photo</title>
<path fill="none" stroke="#000000" d="M578.8254,-7.5C578.8254,-7.5 802.55,-7.5 802.55,-7.5 808.55,-7.5 814.55,-13.5 814.55,-19.5 814.55,-19.5 814.55,-95.5 814.55,-95.5 814.55,-101.5 808.55,-107.5 802.55,-107.5 802.55,-107.5 578.8254,-107.5 578.8254,-107.5 572.8254,-107.5 566.8254,-101.5 566.8254,-95.5 566.8254,-95.5 566.8254,-19.5 566.8254,-19.5 566.8254,-13.5 572.8254,-7.5 578.8254,-7.5"/>
<text text-anchor="middle" x="690.6877" y="-92.3" font-family="Times,serif" font-size="14.00" fill="#000000">Photo</text>
<polyline fill="none" stroke="#000000" points="566.8254,-85.5 814.55,-85.5 "/>
<text text-anchor="start" x="574.8254" y="-70.3" font-family="Times,serif" font-size="14.00" fill="#000000">id :bigint</text>
<text text-anchor="start" x="574.8254" y="-56.3" font-family="Times,serif" font-size="14.00" fill="#000000">image :character varying</text>
<text text-anchor="start" x="574.8254" y="-42.3" font-family="Times,serif" font-size="14.00" fill="#000000">product_id :bigint</text>
<text text-anchor="start" x="574.8254" y="-28.3" font-family="Times,serif" font-size="14.00" fill="#000000">created_at :timestamp without time zone</text>
<text text-anchor="start" x="574.8254" y="-14.3" font-family="Times,serif" font-size="14.00" fill="#000000">updated_at :timestamp without time zone</text>
</g>
<!-- Product&#45;&gt;Photo -->
<g id="edge6" class="edge">
<title>Product&#45;&gt;Photo</title>
<path fill="none" stroke="#b9dee9" d="M690.6877,-142.9937C690.6877,-134.547 690.6877,-126.1069 690.6877,-117.9992"/>
<ellipse fill="none" stroke="#b9dee9" cx="690.6878" cy="-147.301" rx="4" ry="4"/>
<polygon fill="#b9dee9" stroke="#b9dee9" points="690.6878,-117.9317 695.1877,-107.9317 690.6878,-112.9317 690.6877,-107.9317 690.6877,-107.9317 690.6877,-107.9317 690.6878,-112.9317 686.1877,-107.9318 690.6878,-117.9317 690.6878,-117.9317"/>
</g>
<!-- Product&#45;&gt;Spec -->
<g id="edge7" class="edge">
<title>Product&#45;&gt;Spec</title>
<path fill="none" stroke="#4d28c8" d="M563.0262,-146.9519C545.3628,-135.5305 527.5736,-124.0277 510.9075,-113.2511"/>
<ellipse fill="none" stroke="#4d28c8" cx="566.3931" cy="-149.129" rx="4" ry="4"/>
<polygon fill="#4d28c8" stroke="#4d28c8" points="510.6986,-113.1161 504.7446,-103.9073 506.4999,-110.4011 502.3012,-107.6861 502.3012,-107.6861 502.3012,-107.6861 506.4999,-110.4011 499.8577,-111.465 510.6986,-113.1161 510.6986,-113.1161"/>
</g>
<!-- Comment -->
<g id="node8" class="node">
<title>Comment</title>
<path fill="none" stroke="#000000" d="M994.8254,-.5C994.8254,-.5 1218.55,-.5 1218.55,-.5 1224.55,-.5 1230.55,-6.5 1230.55,-12.5 1230.55,-12.5 1230.55,-102.5 1230.55,-102.5 1230.55,-108.5 1224.55,-114.5 1218.55,-114.5 1218.55,-114.5 994.8254,-114.5 994.8254,-114.5 988.8254,-114.5 982.8254,-108.5 982.8254,-102.5 982.8254,-102.5 982.8254,-12.5 982.8254,-12.5 982.8254,-6.5 988.8254,-.5 994.8254,-.5"/>
<text text-anchor="middle" x="1106.6877" y="-99.3" font-family="Times,serif" font-size="14.00" fill="#000000">Comment</text>
<polyline fill="none" stroke="#000000" points="982.8254,-92.5 1230.55,-92.5 "/>
<text text-anchor="start" x="990.8254" y="-77.3" font-family="Times,serif" font-size="14.00" fill="#000000">id :bigint</text>
<text text-anchor="start" x="990.8254" y="-63.3" font-family="Times,serif" font-size="14.00" fill="#000000">content :character varying</text>
<text text-anchor="start" x="990.8254" y="-49.3" font-family="Times,serif" font-size="14.00" fill="#000000">product_id :bigint</text>
<text text-anchor="start" x="990.8254" y="-35.3" font-family="Times,serif" font-size="14.00" fill="#000000">created_at :timestamp without time zone</text>
<text text-anchor="start" x="990.8254" y="-21.3" font-family="Times,serif" font-size="14.00" fill="#000000">updated_at :timestamp without time zone</text>
<text text-anchor="start" x="990.8254" y="-7.3" font-family="Times,serif" font-size="14.00" fill="#000000">user_id :bigint</text>
</g>
<!-- Product&#45;&gt;Comment -->
<g id="edge5" class="edge">
<title>Product&#45;&gt;Comment</title>
<path fill="none" stroke="#657906" d="M822.1712,-175.1366C870.3657,-155.2101 924.9284,-132.6505 973.289,-112.6552"/>
<ellipse fill="none" stroke="#657906" cx="818.353" cy="-176.7153" rx="4" ry="4"/>
<polygon fill="#657906" stroke="#657906" points="973.3175,-112.6435 984.2782,-112.9811 977.9381,-110.733 982.5588,-108.8226 982.5588,-108.8226 982.5588,-108.8226 977.9381,-110.733 980.8393,-104.664 973.3175,-112.6435 973.3175,-112.6435"/>
</g>
<!-- ApplicationRecord -->
<g id="node9" class="node">
<title>ApplicationRecord</title>
<ellipse fill="none" stroke="#000000" cx="1437.6877" cy="-499.5" rx="77.2916" ry="18"/>
<text text-anchor="middle" x="1437.6877" y="-495.3" font-family="Times,serif" font-size="14.00" fill="#000000">ApplicationRecord</text>
</g>
<!-- User -->
<g id="node10" class="node">
<title>User</title>
<path fill="none" stroke="#000000" d="M1035.053,-344.5C1035.053,-344.5 1330.3225,-344.5 1330.3225,-344.5 1336.3225,-344.5 1342.3225,-350.5 1342.3225,-356.5 1342.3225,-356.5 1342.3225,-642.5 1342.3225,-642.5 1342.3225,-648.5 1336.3225,-654.5 1330.3225,-654.5 1330.3225,-654.5 1035.053,-654.5 1035.053,-654.5 1029.053,-654.5 1023.053,-648.5 1023.053,-642.5 1023.053,-642.5 1023.053,-356.5 1023.053,-356.5 1023.053,-350.5 1029.053,-344.5 1035.053,-344.5"/>
<text text-anchor="middle" x="1182.6877" y="-639.3" font-family="Times,serif" font-size="14.00" fill="#000000">User</text>
<polyline fill="none" stroke="#000000" points="1023.053,-632.5 1342.3225,-632.5 "/>
<text text-anchor="start" x="1031.053" y="-617.3" font-family="Times,serif" font-size="14.00" fill="#000000">role :integer</text>
<text text-anchor="start" x="1031.053" y="-603.3" font-family="Times,serif" font-size="14.00" fill="#000000">email :character varying</text>
<text text-anchor="start" x="1031.053" y="-589.3" font-family="Times,serif" font-size="14.00" fill="#000000">encrypted_password :character varying</text>
<text text-anchor="start" x="1031.053" y="-575.3" font-family="Times,serif" font-size="14.00" fill="#000000">reset_password_token :character varying</text>
<text text-anchor="start" x="1031.053" y="-561.3" font-family="Times,serif" font-size="14.00" fill="#000000">reset_password_sent_at :timestamp without time zone</text>
<text text-anchor="start" x="1031.053" y="-547.3" font-family="Times,serif" font-size="14.00" fill="#000000">remember_created_at :timestamp without time zone</text>
<text text-anchor="start" x="1031.053" y="-533.3" font-family="Times,serif" font-size="14.00" fill="#000000">sign_in_count :integer</text>
<text text-anchor="start" x="1031.053" y="-519.3" font-family="Times,serif" font-size="14.00" fill="#000000">current_sign_in_at :timestamp without time zone</text>
<text text-anchor="start" x="1031.053" y="-505.3" font-family="Times,serif" font-size="14.00" fill="#000000">last_sign_in_at :timestamp without time zone</text>
<text text-anchor="start" x="1031.053" y="-491.3" font-family="Times,serif" font-size="14.00" fill="#000000">current_sign_in_ip :inet</text>
<text text-anchor="start" x="1031.053" y="-477.3" font-family="Times,serif" font-size="14.00" fill="#000000">last_sign_in_ip :inet</text>
<text text-anchor="start" x="1031.053" y="-463.3" font-family="Times,serif" font-size="14.00" fill="#000000">name :character varying</text>
<text text-anchor="start" x="1031.053" y="-449.3" font-family="Times,serif" font-size="14.00" fill="#000000">phone :character varying</text>
<text text-anchor="start" x="1031.053" y="-435.3" font-family="Times,serif" font-size="14.00" fill="#000000">profile_pic :character varying</text>
<text text-anchor="start" x="1031.053" y="-421.3" font-family="Times,serif" font-size="14.00" fill="#000000">banner_pic :character varying</text>
<text text-anchor="start" x="1031.053" y="-407.3" font-family="Times,serif" font-size="14.00" fill="#000000">address :character varying</text>
<text text-anchor="start" x="1031.053" y="-393.3" font-family="Times,serif" font-size="14.00" fill="#000000">description :text</text>
<text text-anchor="start" x="1031.053" y="-379.3" font-family="Times,serif" font-size="14.00" fill="#000000">created_at :timestamp without time zone</text>
<text text-anchor="start" x="1031.053" y="-365.3" font-family="Times,serif" font-size="14.00" fill="#000000">updated_at :timestamp without time zone</text>
<text text-anchor="start" x="1031.053" y="-351.3" font-family="Times,serif" font-size="14.00" fill="#000000">id :bigint</text>
</g>
<!-- User&#45;&gt;Product -->
<g id="edge8" class="edge">
<title>User&#45;&gt;Product</title>
<path fill="none" stroke="#0324c9" d="M1015.9631,-344.774C1015.5381,-344.5148 1015.113,-344.2568 1014.6877,-344 956.1515,-308.6536 885.0829,-282.0057 824.4382,-263.3526"/>
<ellipse fill="none" stroke="#0324c9" cx="1019.4418" cy="-346.9511" rx="4" ry="4"/>
<polygon fill="#0324c9" stroke="#0324c9" points="824.3673,-263.3312 816.1048,-256.1213 819.5827,-261.8793 814.7981,-260.4275 814.7981,-260.4275 814.7981,-260.4275 819.5827,-261.8793 813.4915,-264.7336 824.3673,-263.3312 824.3673,-263.3312"/>
</g>
<!-- User&#45;&gt;Comment -->
<g id="edge9" class="edge">
<title>User&#45;&gt;Comment</title>
<path fill="none" stroke="#cf7e3f" d="M1154.6297,-336.3203C1142.0507,-263.1634 1127.9083,-180.9141 1118.2635,-124.8222"/>
<ellipse fill="none" stroke="#cf7e3f" cx="1155.322" cy="-340.3467" rx="4" ry="4"/>
<polygon fill="#cf7e3f" stroke="#cf7e3f" points="1118.211,-124.5165 1120.9513,-113.8985 1117.3637,-119.5888 1116.5163,-114.6611 1116.5163,-114.6611 1116.5163,-114.6611 1117.3637,-119.5888 1112.0814,-115.4237 1118.211,-124.5165 1118.211,-124.5165"/>
</g>
</g>
</svg>
