<?xml version="1.0" encoding="UTF-8" standalone="no"?>
<!DOCTYPE svg PUBLIC "-//W3C//DTD SVG 1.1//EN"
 "http://www.w3.org/Graphics/SVG/1.1/DTD/svg11.dtd">
<!-- Generated by graphviz version 2.38.0 (20140413.2041)
 -->
<!-- Title: models_diagram Pages: 1 -->
<svg width="725pt" height="230pt"
 viewBox="0.00 0.00 725.34 230.00" xmlns="http://www.w3.org/2000/svg" xmlns:xlink="http://www.w3.org/1999/xlink">
<g id="graph0" class="graph" transform="scale(1 1) rotate(0) translate(4 226)">
<title>models_diagram</title>
<polygon fill="none" stroke="none" points="-4,4 -4,-226 721.343,-226 721.343,4 -4,4"/>
<!-- _diagram_info -->
<g id="node1" class="node"><title>_diagram_info</title>
<text text-anchor="start" x="8" y="-207.6" font-family="Times,serif" font-size="13.00">Models diagram</text>
<text text-anchor="start" x="8" y="-193.6" font-family="Times,serif" font-size="13.00">Date: Mar 07 2018 &#45; 12:31</text>
<text text-anchor="start" x="8" y="-179.6" font-family="Times,serif" font-size="13.00">Migration version: 20180307152143</text>
<text text-anchor="start" x="8" y="-165.6" font-family="Times,serif" font-size="13.00">Generated by RailRoady 1.5.3</text>
<text text-anchor="start" x="8" y="-151.6" font-family="Times,serif" font-size="13.00">http://railroady.prestonlee.com</text>
</g>
<!-- Photo -->
<g id="node2" class="node"><title>Photo</title>
<ellipse fill="none" stroke="black" cx="441" cy="-18" rx="31.3957" ry="18"/>
<text text-anchor="middle" x="441" y="-14.3" font-family="Times,serif" font-size="14.00">Photo</text>
</g>
<!-- Category -->
<g id="node3" class="node"><title>Category</title>
<ellipse fill="none" stroke="black" cx="275" cy="-183" rx="42.7926" ry="18"/>
<text text-anchor="middle" x="275" y="-179.3" font-family="Times,serif" font-size="14.00">Category</text>
</g>
<!-- Product -->
<g id="node7" class="node"><title>Product</title>
<ellipse fill="none" stroke="black" cx="443" cy="-90" rx="38.1938" ry="18"/>
<text text-anchor="middle" x="443" y="-86.3" font-family="Times,serif" font-size="14.00">Product</text>
</g>
<!-- Category&#45;&gt;Product -->
<g id="edge1" class="edge"><title>Category&#45;&gt;Product</title>
<path fill="none" stroke="#8a9440" d="M300.701,-161.633C308.874,-155.595 318.105,-149.209 327,-144 352.076,-129.313 381.931,-115.755 405.073,-106.028"/>
<ellipse fill="none" stroke="#8a9440" cx="297.311" cy="-164.185" rx="4.00002" ry="4.00002"/>
<polygon fill="#8a9440" stroke="#8a9440" points="405.308,-105.931 416.269,-106.259 409.927,-104.016 414.546,-102.102 414.546,-102.102 414.546,-102.102 409.927,-104.016 412.823,-97.9449 405.308,-105.931 405.308,-105.931"/>
</g>
<!-- Brand -->
<g id="node4" class="node"><title>Brand</title>
<ellipse fill="none" stroke="black" cx="368" cy="-183" rx="32.4942" ry="18"/>
<text text-anchor="middle" x="368" y="-179.3" font-family="Times,serif" font-size="14.00">Brand</text>
</g>
<!-- Brand&#45;&gt;Product -->
<g id="edge2" class="edge"><title>Brand&#45;&gt;Product</title>
<path fill="none" stroke="#e5f986" d="M386.166,-159.959C397.437,-146.283 411.915,-128.716 423.438,-114.735"/>
<ellipse fill="none" stroke="#e5f986" cx="383.608" cy="-163.062" rx="4.00002" ry="4.00002"/>
<polygon fill="#e5f986" stroke="#e5f986" points="423.474,-114.692 433.307,-109.837 426.654,-110.833 429.834,-106.975 429.834,-106.975 429.834,-106.975 426.654,-110.833 426.361,-104.113 423.474,-114.692 423.474,-114.692"/>
</g>
<!-- User -->
<g id="node5" class="node"><title>User</title>
<ellipse fill="none" stroke="black" cx="446" cy="-183" rx="27.0966" ry="18"/>
<text text-anchor="middle" x="446" y="-179.3" font-family="Times,serif" font-size="14.00">User</text>
</g>
<!-- User&#45;&gt;Product -->
<g id="edge3" class="edge"><title>User&#45;&gt;Product</title>
<path fill="none" stroke="#9f5c38" d="M445.167,-156.729C444.771,-144.725 444.298,-130.362 443.894,-118.129"/>
<ellipse fill="none" stroke="#9f5c38" cx="445.304" cy="-160.886" rx="4" ry="4"/>
<polygon fill="#9f5c38" stroke="#9f5c38" points="443.891,-118.034 448.059,-107.891 443.727,-113.037 443.562,-108.04 443.562,-108.04 443.562,-108.04 443.727,-113.037 439.064,-108.188 443.891,-118.034 443.891,-118.034"/>
</g>
<!-- Tag -->
<g id="node6" class="node"><title>Tag</title>
<ellipse fill="none" stroke="black" cx="518" cy="-183" rx="27" ry="18"/>
<text text-anchor="middle" x="518" y="-179.3" font-family="Times,serif" font-size="14.00">Tag</text>
</g>
<!-- Tag&#45;&gt;Product -->
<g id="edge5" class="edge"><title>Tag&#45;&gt;Product</title>
<path fill="none" stroke="#1b0775" d="M499.048,-159.005C487.956,-145.546 473.969,-128.576 462.743,-114.955"/>
<polygon fill="#1b0775" stroke="#1b0775" points="499.255,-159.256 502.143,-169.835 502.435,-163.115 505.615,-166.973 505.615,-166.973 505.615,-166.973 502.435,-163.115 509.088,-164.111 499.255,-159.256 499.255,-159.256"/>
<polygon fill="#1b0775" stroke="#1b0775" points="462.521,-114.685 459.633,-104.106 459.341,-110.827 456.161,-106.968 456.161,-106.968 456.161,-106.968 459.341,-110.827 452.688,-109.83 462.521,-114.685 462.521,-114.685"/>
</g>
<!-- Spec -->
<g id="node9" class="node"><title>Spec</title>
<ellipse fill="none" stroke="black" cx="518" cy="-18" rx="27.8951" ry="18"/>
<text text-anchor="middle" x="518" y="-14.3" font-family="Times,serif" font-size="14.00">Spec</text>
</g>
<!-- Tag&#45;&gt;Spec -->
<g id="edge4" class="edge"><title>Tag&#45;&gt;Spec</title>
<path fill="none" stroke="#f0ce78" d="M518,-156.52C518,-126.6 518,-77.1639 518,-46.4265"/>
<ellipse fill="none" stroke="#f0ce78" cx="518" cy="-160.864" rx="4" ry="4"/>
<polygon fill="#f0ce78" stroke="#f0ce78" points="518,-46.3968 522.5,-36.3967 518,-41.3968 518,-36.3968 518,-36.3968 518,-36.3968 518,-41.3968 513.5,-36.3968 518,-46.3968 518,-46.3968"/>
</g>
<!-- Product&#45;&gt;Photo -->
<g id="edge6" class="edge"><title>Product&#45;&gt;Photo</title>
<path fill="none" stroke="#1bf340" d="M442.275,-63.6398C442.116,-58.0629 441.947,-52.1319 441.785,-46.4761"/>
<ellipse fill="none" stroke="#1bf340" cx="442.391" cy="-67.6983" rx="4" ry="4"/>
<polygon fill="#1bf340" stroke="#1bf340" points="441.774,-46.1003 445.987,-35.9758 441.632,-41.1023 441.489,-36.1043 441.489,-36.1043 441.489,-36.1043 441.632,-41.1023 436.991,-36.2329 441.774,-46.1003 441.774,-46.1003"/>
</g>
<!-- Product&#45;&gt;Spec -->
<g id="edge7" class="edge"><title>Product&#45;&gt;Spec</title>
<path fill="none" stroke="#f1b483" d="M465.656,-67.854C475.014,-59.1201 485.842,-49.0138 495.214,-40.2673"/>
<ellipse fill="none" stroke="#f1b483" cx="462.569" cy="-70.7354" rx="4.00002" ry="4.00002"/>
<polygon fill="#f1b483" stroke="#f1b483" points="495.368,-40.1233 505.749,-36.5899 499.023,-36.7117 502.678,-33.3001 502.678,-33.3001 502.678,-33.3001 499.023,-36.7117 499.608,-30.0103 495.368,-40.1233 495.368,-40.1233"/>
</g>
<!-- ApplicationRecord -->
<g id="node8" class="node"><title>ApplicationRecord</title>
<ellipse fill="none" stroke="black" cx="640" cy="-183" rx="77.1866" ry="18"/>
<text text-anchor="middle" x="640" y="-179.3" font-family="Times,serif" font-size="14.00">ApplicationRecord</text>
</g>
</g>
</svg>
