<?xml version="1.0" encoding="UTF-8" standalone="no"?>
<!DOCTYPE svg PUBLIC "-//W3C//DTD SVG 1.1//EN"
 "http://www.w3.org/Graphics/SVG/1.1/DTD/svg11.dtd">
<!-- Generated by graphviz version 2.40.1 (20161225.0304)
 -->
<!-- Title: models_diagram Pages: 1 -->
<svg width="1522pt" height="635pt"
 viewBox="0.00 0.00 1522.08 635.00" xmlns="http://www.w3.org/2000/svg" xmlns:xlink="http://www.w3.org/1999/xlink">
<g id="graph0" class="graph" transform="scale(1 1) rotate(0) translate(4 631)">
<title>models_diagram</title>
<polygon fill="transparent" stroke="transparent" points="-4,4 -4,-631 1518.0835,-631 1518.0835,4 -4,4"/>
<!-- _diagram_info -->
<g id="node1" class="node">
<title>_diagram_info</title>
<text text-anchor="start" x="8" y="-493.6" font-family="Times,serif" font-size="13.00" fill="#000000">Models diagram</text>
<text text-anchor="start" x="8" y="-480.6" font-family="Times,serif" font-size="13.00" fill="#000000">Date: Mar 08 2018 &#45; 11:18</text>
<text text-anchor="start" x="8" y="-467.6" font-family="Times,serif" font-size="13.00" fill="#000000">Migration version: 20180307152143</text>
<text text-anchor="start" x="8" y="-454.6" font-family="Times,serif" font-size="13.00" fill="#000000">Generated by RailRoady 1.5.3</text>
<text text-anchor="start" x="8" y="-441.6" font-family="Times,serif" font-size="13.00" fill="#000000">http://railroady.prestonlee.com</text>
</g>
<!-- Brand -->
<g id="node2" class="node">
<title>Brand</title>
<path fill="none" stroke="#000000" d="M237.8254,-428.5C237.8254,-428.5 461.55,-428.5 461.55,-428.5 467.55,-428.5 473.55,-434.5 473.55,-440.5 473.55,-440.5 473.55,-502.5 473.55,-502.5 473.55,-508.5 467.55,-514.5 461.55,-514.5 461.55,-514.5 237.8254,-514.5 237.8254,-514.5 231.8254,-514.5 225.8254,-508.5 225.8254,-502.5 225.8254,-502.5 225.8254,-440.5 225.8254,-440.5 225.8254,-434.5 231.8254,-428.5 237.8254,-428.5"/>
<text text-anchor="middle" x="349.6877" y="-499.3" font-family="Times,serif" font-size="14.00" fill="#000000">Brand</text>
<polyline fill="none" stroke="#000000" points="225.8254,-492.5 473.55,-492.5 "/>
<text text-anchor="start" x="233.8254" y="-477.3" font-family="Times,serif" font-size="14.00" fill="#000000">id :bigint</text>
<text text-anchor="start" x="233.8254" y="-463.3" font-family="Times,serif" font-size="14.00" fill="#000000">name :character varying</text>
<text text-anchor="start" x="233.8254" y="-449.3" font-family="Times,serif" font-size="14.00" fill="#000000">created_at :timestamp without time zone</text>
<text text-anchor="start" x="233.8254" y="-435.3" font-family="Times,serif" font-size="14.00" fill="#000000">updated_at :timestamp without time zone</text>
</g>
<!-- Product -->
<g id="node5" class="node">
<title>Product</title>
<path fill="none" stroke="#000000" d="M804.8254,-137.5C804.8254,-137.5 1028.55,-137.5 1028.55,-137.5 1034.55,-137.5 1040.55,-143.5 1040.55,-149.5 1040.55,-149.5 1040.55,-267.5 1040.55,-267.5 1040.55,-273.5 1034.55,-279.5 1028.55,-279.5 1028.55,-279.5 804.8254,-279.5 804.8254,-279.5 798.8254,-279.5 792.8254,-273.5 792.8254,-267.5 792.8254,-267.5 792.8254,-149.5 792.8254,-149.5 792.8254,-143.5 798.8254,-137.5 804.8254,-137.5"/>
<text text-anchor="middle" x="916.6877" y="-264.3" font-family="Times,serif" font-size="14.00" fill="#000000">Product</text>
<polyline fill="none" stroke="#000000" points="792.8254,-257.5 1040.55,-257.5 "/>
<text text-anchor="start" x="800.8254" y="-242.3" font-family="Times,serif" font-size="14.00" fill="#000000">brand_id :bigint</text>
<text text-anchor="start" x="800.8254" y="-228.3" font-family="Times,serif" font-size="14.00" fill="#000000">name :character varying</text>
<text text-anchor="start" x="800.8254" y="-214.3" font-family="Times,serif" font-size="14.00" fill="#000000">description :text</text>
<text text-anchor="start" x="800.8254" y="-200.3" font-family="Times,serif" font-size="14.00" fill="#000000">price :integer</text>
<text text-anchor="start" x="800.8254" y="-186.3" font-family="Times,serif" font-size="14.00" fill="#000000">created_at :timestamp without time zone</text>
<text text-anchor="start" x="800.8254" y="-172.3" font-family="Times,serif" font-size="14.00" fill="#000000">updated_at :timestamp without time zone</text>
<text text-anchor="start" x="800.8254" y="-158.3" font-family="Times,serif" font-size="14.00" fill="#000000">category_id :bigint</text>
<text text-anchor="start" x="800.8254" y="-144.3" font-family="Times,serif" font-size="14.00" fill="#000000">id :bigint</text>
</g>
<!-- Brand&#45;&gt;Product -->
<g id="edge1" class="edge">
<title>Brand&#45;&gt;Product</title>
<path fill="none" stroke="#442e61" d="M380.2407,-421.5509C403.9988,-386.8694 440.0364,-342.3273 482.6877,-316 573.5724,-259.8998 692.1325,-233.05 782.3646,-220.2141"/>
<ellipse fill="none" stroke="#442e61" cx="377.8919" cy="-425.0317" rx="4" ry="4"/>
<polygon fill="#442e61" stroke="#442e61" points="782.484,-220.1977 793.0059,-223.2865 787.4369,-219.5132 792.3899,-218.8288 792.3899,-218.8288 792.3899,-218.8288 787.4369,-219.5132 791.7739,-214.3712 782.484,-220.1977 782.484,-220.1977"/>
</g>
<!-- Category -->
<g id="node3" class="node">
<title>Category</title>
<path fill="none" stroke="#000000" d="M503.8254,-428.5C503.8254,-428.5 727.55,-428.5 727.55,-428.5 733.55,-428.5 739.55,-434.5 739.55,-440.5 739.55,-440.5 739.55,-502.5 739.55,-502.5 739.55,-508.5 733.55,-514.5 727.55,-514.5 727.55,-514.5 503.8254,-514.5 503.8254,-514.5 497.8254,-514.5 491.8254,-508.5 491.8254,-502.5 491.8254,-502.5 491.8254,-440.5 491.8254,-440.5 491.8254,-434.5 497.8254,-428.5 503.8254,-428.5"/>
<text text-anchor="middle" x="615.6877" y="-499.3" font-family="Times,serif" font-size="14.00" fill="#000000">Category</text>
<polyline fill="none" stroke="#000000" points="491.8254,-492.5 739.55,-492.5 "/>
<text text-anchor="start" x="499.8254" y="-477.3" font-family="Times,serif" font-size="14.00" fill="#000000">id :bigint</text>
<text text-anchor="start" x="499.8254" y="-463.3" font-family="Times,serif" font-size="14.00" fill="#000000">name :character varying</text>
<text text-anchor="start" x="499.8254" y="-449.3" font-family="Times,serif" font-size="14.00" fill="#000000">created_at :timestamp without time zone</text>
<text text-anchor="start" x="499.8254" y="-435.3" font-family="Times,serif" font-size="14.00" fill="#000000">updated_at :timestamp without time zone</text>
</g>
<!-- Category&#45;&gt;Product -->
<g id="edge2" class="edge">
<title>Category&#45;&gt;Product</title>
<path fill="none" stroke="#789b59" d="M651.9185,-421.4354C676.7168,-389.1594 711.5457,-347.4916 747.6877,-316 759.7373,-305.5008 772.9076,-295.3066 786.4078,-285.6462"/>
<ellipse fill="none" stroke="#789b59" cx="649.2072" cy="-424.9921" rx="4" ry="4"/>
<polygon fill="#789b59" stroke="#789b59" points="786.6728,-285.4596 797.44,-283.3816 790.761,-282.5809 794.8492,-279.7022 794.8492,-279.7022 794.8492,-279.7022 790.761,-282.5809 792.2583,-276.0229 786.6728,-285.4596 786.6728,-285.4596"/>
</g>
<!-- Tag -->
<g id="node4" class="node">
<title>Tag</title>
<path fill="none" stroke="#000000" d="M1105.8254,-428.5C1105.8254,-428.5 1329.55,-428.5 1329.55,-428.5 1335.55,-428.5 1341.55,-434.5 1341.55,-440.5 1341.55,-440.5 1341.55,-502.5 1341.55,-502.5 1341.55,-508.5 1335.55,-514.5 1329.55,-514.5 1329.55,-514.5 1105.8254,-514.5 1105.8254,-514.5 1099.8254,-514.5 1093.8254,-508.5 1093.8254,-502.5 1093.8254,-502.5 1093.8254,-440.5 1093.8254,-440.5 1093.8254,-434.5 1099.8254,-428.5 1105.8254,-428.5"/>
<text text-anchor="middle" x="1217.6877" y="-499.3" font-family="Times,serif" font-size="14.00" fill="#000000">Tag</text>
<polyline fill="none" stroke="#000000" points="1093.8254,-492.5 1341.55,-492.5 "/>
<text text-anchor="start" x="1101.8254" y="-477.3" font-family="Times,serif" font-size="14.00" fill="#000000">id :bigint</text>
<text text-anchor="start" x="1101.8254" y="-463.3" font-family="Times,serif" font-size="14.00" fill="#000000">name :character varying</text>
<text text-anchor="start" x="1101.8254" y="-449.3" font-family="Times,serif" font-size="14.00" fill="#000000">created_at :timestamp without time zone</text>
<text text-anchor="start" x="1101.8254" y="-435.3" font-family="Times,serif" font-size="14.00" fill="#000000">updated_at :timestamp without time zone</text>
</g>
<!-- Tag&#45;&gt;Product -->
<g id="edge4" class="edge">
<title>Tag&#45;&gt;Product</title>
<path fill="none" stroke="#9f83be" d="M1180.5185,-420.2156C1155.7841,-388.115 1121.3761,-347.0963 1085.6877,-316 1073.6381,-305.5008 1060.4678,-295.3066 1046.9677,-285.6462"/>
<polygon fill="#9f83be" stroke="#9f83be" points="1180.5253,-420.2246 1183.0165,-430.9038 1183.5593,-424.1989 1186.5933,-428.1732 1186.5933,-428.1732 1186.5933,-428.1732 1183.5593,-424.1989 1190.1702,-425.4426 1180.5253,-420.2246 1180.5253,-420.2246"/>
<polygon fill="#9f83be" stroke="#9f83be" points="1046.7027,-285.4596 1041.1172,-276.0229 1042.6145,-282.5809 1038.5263,-279.7022 1038.5263,-279.7022 1038.5263,-279.7022 1042.6145,-282.5809 1035.9355,-283.3816 1046.7027,-285.4596 1046.7027,-285.4596"/>
</g>
<!-- Spec -->
<g id="node7" class="node">
<title>Spec</title>
<path fill="none" stroke="#000000" d="M1087.8254,-.5C1087.8254,-.5 1311.55,-.5 1311.55,-.5 1317.55,-.5 1323.55,-6.5 1323.55,-12.5 1323.55,-12.5 1323.55,-88.5 1323.55,-88.5 1323.55,-94.5 1317.55,-100.5 1311.55,-100.5 1311.55,-100.5 1087.8254,-100.5 1087.8254,-100.5 1081.8254,-100.5 1075.8254,-94.5 1075.8254,-88.5 1075.8254,-88.5 1075.8254,-12.5 1075.8254,-12.5 1075.8254,-6.5 1081.8254,-.5 1087.8254,-.5"/>
<text text-anchor="middle" x="1199.6877" y="-85.3" font-family="Times,serif" font-size="14.00" fill="#000000">Spec</text>
<polyline fill="none" stroke="#000000" points="1075.8254,-78.5 1323.55,-78.5 "/>
<text text-anchor="start" x="1083.8254" y="-63.3" font-family="Times,serif" font-size="14.00" fill="#000000">id :bigint</text>
<text text-anchor="start" x="1083.8254" y="-49.3" font-family="Times,serif" font-size="14.00" fill="#000000">product_id :bigint</text>
<text text-anchor="start" x="1083.8254" y="-35.3" font-family="Times,serif" font-size="14.00" fill="#000000">tag_id :bigint</text>
<text text-anchor="start" x="1083.8254" y="-21.3" font-family="Times,serif" font-size="14.00" fill="#000000">created_at :timestamp without time zone</text>
<text text-anchor="start" x="1083.8254" y="-7.3" font-family="Times,serif" font-size="14.00" fill="#000000">updated_at :timestamp without time zone</text>
</g>
<!-- Tag&#45;&gt;Spec -->
<g id="edge3" class="edge">
<title>Tag&#45;&gt;Spec</title>
<path fill="none" stroke="#effd44" d="M1215.4997,-420.3236C1212.1626,-342.2728 1205.8151,-193.8127 1202.2615,-110.6978"/>
<ellipse fill="none" stroke="#effd44" cx="1215.6751" cy="-424.4277" rx="4" ry="4"/>
<polygon fill="#effd44" stroke="#effd44" points="1202.2591,-110.6396 1206.3278,-100.4565 1202.0455,-105.6442 1201.8319,-100.6488 1201.8319,-100.6488 1201.8319,-100.6488 1202.0455,-105.6442 1197.336,-100.841 1202.2591,-110.6396 1202.2591,-110.6396"/>
</g>
<!-- Photo -->
<g id="node6" class="node">
<title>Photo</title>
<path fill="none" stroke="#000000" d="M804.8254,-.5C804.8254,-.5 1028.55,-.5 1028.55,-.5 1034.55,-.5 1040.55,-6.5 1040.55,-12.5 1040.55,-12.5 1040.55,-88.5 1040.55,-88.5 1040.55,-94.5 1034.55,-100.5 1028.55,-100.5 1028.55,-100.5 804.8254,-100.5 804.8254,-100.5 798.8254,-100.5 792.8254,-94.5 792.8254,-88.5 792.8254,-88.5 792.8254,-12.5 792.8254,-12.5 792.8254,-6.5 798.8254,-.5 804.8254,-.5"/>
<text text-anchor="middle" x="916.6877" y="-85.3" font-family="Times,serif" font-size="14.00" fill="#000000">Photo</text>
<polyline fill="none" stroke="#000000" points="792.8254,-78.5 1040.55,-78.5 "/>
<text text-anchor="start" x="800.8254" y="-63.3" font-family="Times,serif" font-size="14.00" fill="#000000">id :bigint</text>
<text text-anchor="start" x="800.8254" y="-49.3" font-family="Times,serif" font-size="14.00" fill="#000000">image :character varying</text>
<text text-anchor="start" x="800.8254" y="-35.3" font-family="Times,serif" font-size="14.00" fill="#000000">product_id :bigint</text>
<text text-anchor="start" x="800.8254" y="-21.3" font-family="Times,serif" font-size="14.00" fill="#000000">created_at :timestamp without time zone</text>
<text text-anchor="start" x="800.8254" y="-7.3" font-family="Times,serif" font-size="14.00" fill="#000000">updated_at :timestamp without time zone</text>
</g>
<!-- Product&#45;&gt;Photo -->
<g id="edge5" class="edge">
<title>Product&#45;&gt;Photo</title>
<path fill="none" stroke="#8e8e92" d="M916.6877,-129.2705C916.6877,-123.2448 916.6877,-117.2209 916.6877,-111.3389"/>
<ellipse fill="none" stroke="#8e8e92" cx="916.6878" cy="-133.3576" rx="4" ry="4"/>
<polygon fill="#8e8e92" stroke="#8e8e92" points="916.6878,-110.9351 921.1877,-100.935 916.6878,-105.9351 916.6877,-100.9351 916.6877,-100.9351 916.6877,-100.9351 916.6878,-105.9351 912.1877,-100.9351 916.6878,-110.9351 916.6878,-110.9351"/>
</g>
<!-- Product&#45;&gt;Spec -->
<g id="edge6" class="edge">
<title>Product&#45;&gt;Spec</title>
<path fill="none" stroke="#0a66d1" d="M1047.937,-135.223C1065.8548,-125.2195 1083.9929,-115.0929 1101.1941,-105.4894"/>
<ellipse fill="none" stroke="#0a66d1" cx="1044.3082" cy="-137.249" rx="4" ry="4"/>
<polygon fill="#0a66d1" stroke="#0a66d1" points="1101.3663,-105.3933 1112.2914,-104.4476 1105.732,-102.9559 1110.0977,-100.5185 1110.0977,-100.5185 1110.0977,-100.5185 1105.732,-102.9559 1107.904,-96.5893 1101.3663,-105.3933 1101.3663,-105.3933"/>
</g>
<!-- ApplicationRecord -->
<g id="node8" class="node">
<title>ApplicationRecord</title>
<ellipse fill="none" stroke="#000000" cx="1436.6877" cy="-471.5" rx="77.2916" ry="18"/>
<text text-anchor="middle" x="1436.6877" y="-467.3" font-family="Times,serif" font-size="14.00" fill="#000000">ApplicationRecord</text>
</g>
<!-- User -->
<g id="node9" class="node">
<title>User</title>
<path fill="none" stroke="#000000" d="M769.053,-316.5C769.053,-316.5 1064.3225,-316.5 1064.3225,-316.5 1070.3225,-316.5 1076.3225,-322.5 1076.3225,-328.5 1076.3225,-328.5 1076.3225,-614.5 1076.3225,-614.5 1076.3225,-620.5 1070.3225,-626.5 1064.3225,-626.5 1064.3225,-626.5 769.053,-626.5 769.053,-626.5 763.053,-626.5 757.053,-620.5 757.053,-614.5 757.053,-614.5 757.053,-328.5 757.053,-328.5 757.053,-322.5 763.053,-316.5 769.053,-316.5"/>
<text text-anchor="middle" x="916.6877" y="-611.3" font-family="Times,serif" font-size="14.00" fill="#000000">User</text>
<polyline fill="none" stroke="#000000" points="757.053,-604.5 1076.3225,-604.5 "/>
<text text-anchor="start" x="765.053" y="-589.3" font-family="Times,serif" font-size="14.00" fill="#000000">updated_at :timestamp without time zone</text>
<text text-anchor="start" x="765.053" y="-575.3" font-family="Times,serif" font-size="14.00" fill="#000000">email :character varying</text>
<text text-anchor="start" x="765.053" y="-561.3" font-family="Times,serif" font-size="14.00" fill="#000000">encrypted_password :character varying</text>
<text text-anchor="start" x="765.053" y="-547.3" font-family="Times,serif" font-size="14.00" fill="#000000">reset_password_token :character varying</text>
<text text-anchor="start" x="765.053" y="-533.3" font-family="Times,serif" font-size="14.00" fill="#000000">reset_password_sent_at :timestamp without time zone</text>
<text text-anchor="start" x="765.053" y="-519.3" font-family="Times,serif" font-size="14.00" fill="#000000">remember_created_at :timestamp without time zone</text>
<text text-anchor="start" x="765.053" y="-505.3" font-family="Times,serif" font-size="14.00" fill="#000000">sign_in_count :integer</text>
<text text-anchor="start" x="765.053" y="-491.3" font-family="Times,serif" font-size="14.00" fill="#000000">current_sign_in_at :timestamp without time zone</text>
<text text-anchor="start" x="765.053" y="-477.3" font-family="Times,serif" font-size="14.00" fill="#000000">last_sign_in_at :timestamp without time zone</text>
<text text-anchor="start" x="765.053" y="-463.3" font-family="Times,serif" font-size="14.00" fill="#000000">current_sign_in_ip :inet</text>
<text text-anchor="start" x="765.053" y="-449.3" font-family="Times,serif" font-size="14.00" fill="#000000">last_sign_in_ip :inet</text>
<text text-anchor="start" x="765.053" y="-435.3" font-family="Times,serif" font-size="14.00" fill="#000000">name :character varying</text>
<text text-anchor="start" x="765.053" y="-421.3" font-family="Times,serif" font-size="14.00" fill="#000000">phone :character varying</text>
<text text-anchor="start" x="765.053" y="-407.3" font-family="Times,serif" font-size="14.00" fill="#000000">profile_pic :character varying</text>
<text text-anchor="start" x="765.053" y="-393.3" font-family="Times,serif" font-size="14.00" fill="#000000">banner_pic :character varying</text>
<text text-anchor="start" x="765.053" y="-379.3" font-family="Times,serif" font-size="14.00" fill="#000000">address :character varying</text>
<text text-anchor="start" x="765.053" y="-365.3" font-family="Times,serif" font-size="14.00" fill="#000000">type :character varying</text>
<text text-anchor="start" x="765.053" y="-351.3" font-family="Times,serif" font-size="14.00" fill="#000000">description :text</text>
<text text-anchor="start" x="765.053" y="-337.3" font-family="Times,serif" font-size="14.00" fill="#000000">created_at :timestamp without time zone</text>
<text text-anchor="start" x="765.053" y="-323.3" font-family="Times,serif" font-size="14.00" fill="#000000">id :bigint</text>
</g>
<!-- User&#45;&gt;Product -->
<g id="edge7" class="edge">
<title>User&#45;&gt;Product</title>
<path fill="none" stroke="#f56bed" d="M916.6877,-307.9599C916.6877,-301.846 916.6877,-295.8305 916.6877,-289.9708"/>
<ellipse fill="none" stroke="#f56bed" cx="916.6878" cy="-312.231" rx="4" ry="4"/>
<polygon fill="#f56bed" stroke="#f56bed" points="916.6878,-289.6039 921.1877,-279.6038 916.6878,-284.6039 916.6877,-279.6039 916.6877,-279.6039 916.6877,-279.6039 916.6878,-284.6039 912.1877,-279.6039 916.6878,-289.6039 916.6878,-289.6039"/>
</g>
</g>
</svg>
