<?xml version="1.0" encoding="UTF-8" standalone="no"?>
<!DOCTYPE svg PUBLIC "-//W3C//DTD SVG 1.1//EN"
 "http://www.w3.org/Graphics/SVG/1.1/DTD/svg11.dtd">
<!-- Generated by graphviz version 2.40.1 (20161225.0304)
 -->
<!-- Title: models_diagram Pages: 1 -->
<svg width="717pt" height="225pt"
 viewBox="0.00 0.00 717.08 225.00" xmlns="http://www.w3.org/2000/svg" xmlns:xlink="http://www.w3.org/1999/xlink">
<g id="graph0" class="graph" transform="scale(1 1) rotate(0) translate(4 221)">
<title>models_diagram</title>
<polygon fill="transparent" stroke="transparent" points="-4,4 -4,-221 713.0835,-221 713.0835,4 -4,4"/>
<!-- _diagram_info -->
<g id="node1" class="node">
<title>_diagram_info</title>
<text text-anchor="start" x="8" y="-202.6" font-family="Times,serif" font-size="13.00" fill="#000000">Models diagram</text>
<text text-anchor="start" x="8" y="-189.6" font-family="Times,serif" font-size="13.00" fill="#000000">Date: Apr 05 2018 &#45; 19:57</text>
<text text-anchor="start" x="8" y="-176.6" font-family="Times,serif" font-size="13.00" fill="#000000">Migration version: 20180405225219</text>
<text text-anchor="start" x="8" y="-163.6" font-family="Times,serif" font-size="13.00" fill="#000000">Generated by RailRoady 1.5.3</text>
<text text-anchor="start" x="8" y="-150.6" font-family="Times,serif" font-size="13.00" fill="#000000">http://railroady.prestonlee.com</text>
</g>
<!-- Brand -->
<g id="node2" class="node">
<title>Brand</title>
<ellipse fill="none" stroke="#000000" cx="329.6877" cy="-180.5" rx="31.9393" ry="18"/>
<text text-anchor="middle" x="329.6877" y="-176.3" font-family="Times,serif" font-size="14.00" fill="#000000">Brand</text>
</g>
<!-- Product -->
<g id="node5" class="node">
<title>Product</title>
<ellipse fill="none" stroke="#000000" cx="350.6877" cy="-90" rx="37.7352" ry="18"/>
<text text-anchor="middle" x="350.6877" y="-85.8" font-family="Times,serif" font-size="14.00" fill="#000000">Product</text>
</g>
<!-- Brand&#45;&gt;Product -->
<g id="edge1" class="edge">
<title>Brand&#45;&gt;Product</title>
<path fill="none" stroke="#997217" d="M335.6593,-154.7652C338.33,-143.256 341.4841,-129.6632 344.2115,-117.9095"/>
<ellipse fill="none" stroke="#997217" cx="334.7409" cy="-158.7236" rx="4" ry="4"/>
<polygon fill="#997217" stroke="#997217" points="344.2151,-117.8937 350.8591,-109.1697 345.3453,-113.0231 346.4756,-108.1525 346.4756,-108.1525 346.4756,-108.1525 345.3453,-113.0231 342.092,-107.1353 344.2151,-117.8937 344.2151,-117.8937"/>
</g>
<!-- Category -->
<g id="node3" class="node">
<title>Category</title>
<ellipse fill="none" stroke="#000000" cx="421.6877" cy="-180.5" rx="42.5456" ry="18"/>
<text text-anchor="middle" x="421.6877" y="-176.3" font-family="Times,serif" font-size="14.00" fill="#000000">Category</text>
</g>
<!-- Category&#45;&gt;Product -->
<g id="edge2" class="edge">
<title>Category&#45;&gt;Product</title>
<path fill="none" stroke="#157d94" d="M402.9942,-156.6723C392.9655,-143.8892 380.6106,-128.1411 370.4268,-115.1604"/>
<ellipse fill="none" stroke="#157d94" cx="405.5292" cy="-159.9036" rx="4" ry="4"/>
<polygon fill="#157d94" stroke="#157d94" points="370.2669,-114.9566 367.6349,-104.3112 367.1807,-111.0227 364.0944,-107.0888 364.0944,-107.0888 364.0944,-107.0888 367.1807,-111.0227 360.554,-109.8664 370.2669,-114.9566 370.2669,-114.9566"/>
</g>
<!-- Tag -->
<g id="node4" class="node">
<title>Tag</title>
<ellipse fill="none" stroke="#000000" cx="252.6877" cy="-180.5" rx="27" ry="18"/>
<text text-anchor="middle" x="252.6877" y="-176.3" font-family="Times,serif" font-size="14.00" fill="#000000">Tag</text>
</g>
<!-- Tag&#45;&gt;Product -->
<g id="edge4" class="edge">
<title>Tag&#45;&gt;Product</title>
<path fill="none" stroke="#a19843" d="M274.8047,-157.5429C279.3355,-152.9919 284.1175,-148.2955 288.6877,-144 300.0705,-133.3015 313.0516,-121.8817 324.1843,-112.3123"/>
<polygon fill="#a19843" stroke="#a19843" points="274.5121,-157.8403 264.2908,-161.8123 271.0052,-161.4044 267.4984,-164.9684 267.4984,-164.9684 267.4984,-164.9684 271.0052,-161.4044 270.7061,-168.1246 274.5121,-157.8403 274.5121,-157.8403"/>
<polygon fill="#a19843" stroke="#a19843" points="324.3115,-112.2037 334.8377,-109.1296 328.1131,-108.9559 331.9147,-105.7081 331.9147,-105.7081 331.9147,-105.7081 328.1131,-108.9559 328.9917,-102.2867 324.3115,-112.2037 324.3115,-112.2037"/>
</g>
<!-- Spec -->
<g id="node7" class="node">
<title>Spec</title>
<ellipse fill="none" stroke="#000000" cx="274.6877" cy="-18" rx="27.0958" ry="18"/>
<text text-anchor="middle" x="274.6877" y="-13.8" font-family="Times,serif" font-size="14.00" fill="#000000">Spec</text>
</g>
<!-- Tag&#45;&gt;Spec -->
<g id="edge3" class="edge">
<title>Tag&#45;&gt;Spec</title>
<path fill="none" stroke="#e9e1ed" d="M256.2512,-154.179C260.2701,-124.4936 266.7798,-76.4109 270.8919,-46.0376"/>
<ellipse fill="none" stroke="#e9e1ed" cx="255.6629" cy="-158.5249" rx="4" ry="4"/>
<polygon fill="#e9e1ed" stroke="#e9e1ed" points="270.8967,-46.0015 276.6977,-36.6957 271.5675,-41.0467 272.2384,-36.0919 272.2384,-36.0919 272.2384,-36.0919 271.5675,-41.0467 267.7791,-35.4881 270.8967,-46.0015 270.8967,-46.0015"/>
</g>
<!-- Photo -->
<g id="node6" class="node">
<title>Photo</title>
<ellipse fill="none" stroke="#000000" cx="350.6877" cy="-18" rx="30.9967" ry="18"/>
<text text-anchor="middle" x="350.6877" y="-13.8" font-family="Times,serif" font-size="14.00" fill="#000000">Photo</text>
</g>
<!-- Product&#45;&gt;Photo -->
<g id="edge6" class="edge">
<title>Product&#45;&gt;Photo</title>
<path fill="none" stroke="#ba761d" d="M350.6877,-63.8144C350.6877,-58.2775 350.6877,-52.4053 350.6877,-46.7785"/>
<ellipse fill="none" stroke="#ba761d" cx="350.6878" cy="-67.8314" rx="4" ry="4"/>
<polygon fill="#ba761d" stroke="#ba761d" points="350.6878,-46.4133 355.1877,-36.4132 350.6878,-41.4133 350.6877,-36.4133 350.6877,-36.4133 350.6877,-36.4133 350.6878,-41.4133 346.1877,-36.4133 350.6878,-46.4133 350.6878,-46.4133"/>
</g>
<!-- Product&#45;&gt;Spec -->
<g id="edge7" class="edge">
<title>Product&#45;&gt;Spec</title>
<path fill="none" stroke="#578caf" d="M327.3939,-67.9321C317.9937,-59.0267 307.174,-48.7764 297.793,-39.8892"/>
<ellipse fill="none" stroke="#578caf" cx="330.5383" cy="-70.9111" rx="4" ry="4"/>
<polygon fill="#578caf" stroke="#578caf" points="297.5736,-39.6814 293.4089,-29.5371 293.9439,-36.2426 290.3141,-32.8039 290.3141,-32.8039 290.3141,-32.8039 293.9439,-36.2426 287.2192,-36.0707 297.5736,-39.6814 297.5736,-39.6814"/>
</g>
<!-- Comment -->
<g id="node8" class="node">
<title>Comment</title>
<ellipse fill="none" stroke="#000000" cx="487.6877" cy="-18" rx="44.9768" ry="18"/>
<text text-anchor="middle" x="487.6877" y="-13.8" font-family="Times,serif" font-size="14.00" fill="#000000">Comment</text>
</g>
<!-- Product&#45;&gt;Comment -->
<g id="edge5" class="edge">
<title>Product&#45;&gt;Comment</title>
<path fill="none" stroke="#f402a8" d="M383.4312,-72.7917C403.7901,-62.0922 430.0045,-48.3153 451.0534,-37.2531"/>
<ellipse fill="none" stroke="#f402a8" cx="379.6761" cy="-74.7652" rx="4" ry="4"/>
<polygon fill="#f402a8" stroke="#f402a8" points="451.171,-37.1913 462.1165,-36.5225 455.597,-34.8652 460.023,-32.5391 460.023,-32.5391 460.023,-32.5391 455.597,-34.8652 457.9295,-28.5557 451.171,-37.1913 451.171,-37.1913"/>
</g>
<!-- ApplicationRecord -->
<g id="node9" class="node">
<title>ApplicationRecord</title>
<ellipse fill="none" stroke="#000000" cx="631.6877" cy="-180.5" rx="77.2916" ry="18"/>
<text text-anchor="middle" x="631.6877" y="-176.3" font-family="Times,serif" font-size="14.00" fill="#000000">ApplicationRecord</text>
</g>
<!-- User -->
<g id="node10" class="node">
<title>User</title>
<ellipse fill="none" stroke="#000000" cx="509.6877" cy="-180.5" rx="27" ry="18"/>
<text text-anchor="middle" x="509.6877" y="-176.3" font-family="Times,serif" font-size="14.00" fill="#000000">User</text>
</g>
<!-- User&#45;&gt;Product -->
<g id="edge8" class="edge">
<title>User&#45;&gt;Product</title>
<path fill="none" stroke="#566b0b" d="M490.7216,-158.56C485.5439,-153.3633 479.6944,-148.1358 473.6877,-144 448.421,-126.6029 416.6457,-112.827 391.7211,-103.5442"/>
<ellipse fill="none" stroke="#566b0b" cx="493.7001" cy="-161.684" rx="4" ry="4"/>
<polygon fill="#566b0b" stroke="#566b0b" points="391.5896,-103.4966 383.7231,-95.8567 386.8892,-101.7918 382.1888,-100.087 382.1888,-100.087 382.1888,-100.087 386.8892,-101.7918 380.6545,-104.3174 391.5896,-103.4966 391.5896,-103.4966"/>
</g>
<!-- User&#45;&gt;Comment -->
<g id="edge9" class="edge">
<title>User&#45;&gt;Comment</title>
<path fill="none" stroke="#0005bb" d="M506.1243,-154.179C502.1053,-124.4936 495.5957,-76.4109 491.4836,-46.0376"/>
<ellipse fill="none" stroke="#0005bb" cx="506.7126" cy="-158.5249" rx="4" ry="4"/>
<polygon fill="#0005bb" stroke="#0005bb" points="491.4788,-46.0015 494.5964,-35.4881 490.808,-41.0467 490.1371,-36.0919 490.1371,-36.0919 490.1371,-36.0919 490.808,-41.0467 485.6778,-36.6957 491.4788,-46.0015 491.4788,-46.0015"/>
</g>
</g>
</svg>
