<?xml version="1.0" encoding="UTF-8" standalone="no"?>
<!DOCTYPE svg PUBLIC "-//W3C//DTD SVG 1.1//EN"
 "http://www.w3.org/Graphics/SVG/1.1/DTD/svg11.dtd">
<!-- Generated by graphviz version 2.40.1 (20161225.0304)
 -->
<!-- Title: models_diagram Pages: 1 -->
<svg width="716pt" height="225pt"
 viewBox="0.00 0.00 716.08 225.00" xmlns="http://www.w3.org/2000/svg" xmlns:xlink="http://www.w3.org/1999/xlink">
<g id="graph0" class="graph" transform="scale(1 1) rotate(0) translate(4 221)">
<title>models_diagram</title>
<polygon fill="transparent" stroke="transparent" points="-4,4 -4,-221 712.0835,-221 712.0835,4 -4,4"/>
<!-- _diagram_info -->
<g id="node1" class="node">
<title>_diagram_info</title>
<text text-anchor="start" x="8" y="-202.6" font-family="Times,serif" font-size="13.00" fill="#000000">Models diagram</text>
<text text-anchor="start" x="8" y="-189.6" font-family="Times,serif" font-size="13.00" fill="#000000">Date: Mar 08 2018 &#45; 11:18</text>
<text text-anchor="start" x="8" y="-176.6" font-family="Times,serif" font-size="13.00" fill="#000000">Migration version: 20180307152143</text>
<text text-anchor="start" x="8" y="-163.6" font-family="Times,serif" font-size="13.00" fill="#000000">Generated by RailRoady 1.5.3</text>
<text text-anchor="start" x="8" y="-150.6" font-family="Times,serif" font-size="13.00" fill="#000000">http://railroady.prestonlee.com</text>
</g>
<!-- Brand -->
<g id="node2" class="node">
<title>Brand</title>
<ellipse fill="none" stroke="#000000" cx="256.6877" cy="-180.5" rx="31.9393" ry="18"/>
<text text-anchor="middle" x="256.6877" y="-176.3" font-family="Times,serif" font-size="14.00" fill="#000000">Brand</text>
</g>
<!-- Product -->
<g id="node5" class="node">
<title>Product</title>
<ellipse fill="none" stroke="#000000" cx="434.6877" cy="-90" rx="37.7352" ry="18"/>
<text text-anchor="middle" x="434.6877" y="-85.8" font-family="Times,serif" font-size="14.00" fill="#000000">Product</text>
</g>
<!-- Brand&#45;&gt;Product -->
<g id="edge1" class="edge">
<title>Brand&#45;&gt;Product</title>
<path fill="none" stroke="#8a09c2" d="M277.5713,-158.8044C283.4141,-153.4976 290.0042,-148.1562 296.6877,-144 326.589,-125.4058 363.9618,-111.259 392.2708,-102.1189"/>
<ellipse fill="none" stroke="#8a09c2" cx="274.4621" cy="-161.7438" rx="4" ry="4"/>
<polygon fill="#8a09c2" stroke="#8a09c2" points="392.34,-102.0972 403.2296,-103.3882 397.1095,-100.5964 401.8789,-99.0956 401.8789,-99.0956 401.8789,-99.0956 397.1095,-100.5964 400.5282,-94.8031 392.34,-102.0972 392.34,-102.0972"/>
</g>
<!-- Category -->
<g id="node3" class="node">
<title>Category</title>
<ellipse fill="none" stroke="#000000" cx="348.6877" cy="-180.5" rx="42.5456" ry="18"/>
<text text-anchor="middle" x="348.6877" y="-176.3" font-family="Times,serif" font-size="14.00" fill="#000000">Category</text>
</g>
<!-- Category&#45;&gt;Product -->
<g id="edge2" class="edge">
<title>Category&#45;&gt;Product</title>
<path fill="none" stroke="#3a541a" d="M370.5961,-157.4452C383.1915,-144.1908 398.9959,-127.5594 411.7589,-114.1286"/>
<ellipse fill="none" stroke="#3a541a" cx="367.6191" cy="-160.578" rx="4" ry="4"/>
<polygon fill="#3a541a" stroke="#3a541a" points="411.9863,-113.8893 422.137,-109.7401 415.4306,-110.2648 418.8749,-106.6403 418.8749,-106.6403 418.8749,-106.6403 415.4306,-110.2648 415.6128,-103.5404 411.9863,-113.8893 411.9863,-113.8893"/>
</g>
<!-- Tag -->
<g id="node4" class="node">
<title>Tag</title>
<ellipse fill="none" stroke="#000000" cx="508.6877" cy="-180.5" rx="27" ry="18"/>
<text text-anchor="middle" x="508.6877" y="-176.3" font-family="Times,serif" font-size="14.00" fill="#000000">Tag</text>
</g>
<!-- Tag&#45;&gt;Product -->
<g id="edge4" class="edge">
<title>Tag&#45;&gt;Product</title>
<path fill="none" stroke="#0473c2" d="M488.7997,-156.1774C478.3646,-143.4156 465.6006,-127.8056 455.0905,-114.952"/>
<polygon fill="#0473c2" stroke="#0473c2" points="489.1279,-156.5789 491.9744,-167.169 492.293,-160.4497 495.458,-164.3204 495.458,-164.3204 495.458,-164.3204 492.293,-160.4497 498.9417,-161.4719 489.1279,-156.5789 489.1279,-156.5789"/>
<polygon fill="#0473c2" stroke="#0473c2" points="454.8865,-114.7025 452.04,-104.1124 451.7214,-110.8317 448.5564,-106.961 448.5564,-106.961 448.5564,-106.961 451.7214,-110.8317 445.0727,-109.8095 454.8865,-114.7025 454.8865,-114.7025"/>
</g>
<!-- Spec -->
<g id="node7" class="node">
<title>Spec</title>
<ellipse fill="none" stroke="#000000" cx="508.6877" cy="-18" rx="27.0958" ry="18"/>
<text text-anchor="middle" x="508.6877" y="-13.8" font-family="Times,serif" font-size="14.00" fill="#000000">Spec</text>
</g>
<!-- Tag&#45;&gt;Spec -->
<g id="edge3" class="edge">
<title>Tag&#45;&gt;Spec</title>
<path fill="none" stroke="#2af4bd" d="M508.6877,-154.179C508.6877,-124.6233 508.6877,-76.8305 508.6877,-46.4365"/>
<ellipse fill="none" stroke="#2af4bd" cx="508.6878" cy="-158.4888" rx="4" ry="4"/>
<polygon fill="#2af4bd" stroke="#2af4bd" points="508.6878,-46.0919 513.1877,-36.0919 508.6878,-41.0919 508.6877,-36.0919 508.6877,-36.0919 508.6877,-36.0919 508.6878,-41.0919 504.1877,-36.0919 508.6878,-46.0919 508.6878,-46.0919"/>
</g>
<!-- Photo -->
<g id="node6" class="node">
<title>Photo</title>
<ellipse fill="none" stroke="#000000" cx="432.6877" cy="-18" rx="30.9967" ry="18"/>
<text text-anchor="middle" x="432.6877" y="-13.8" font-family="Times,serif" font-size="14.00" fill="#000000">Photo</text>
</g>
<!-- Product&#45;&gt;Photo -->
<g id="edge5" class="edge">
<title>Product&#45;&gt;Photo</title>
<path fill="none" stroke="#619816" d="M433.9604,-63.8144C433.8066,-58.2775 433.6434,-52.4053 433.4871,-46.7785"/>
<ellipse fill="none" stroke="#619816" cx="434.0719" cy="-67.8329" rx="4" ry="4"/>
<polygon fill="#619816" stroke="#619816" points="433.477,-46.4094 437.6975,-36.2883 433.3381,-41.4113 433.1992,-36.4133 433.1992,-36.4133 433.1992,-36.4133 433.3381,-41.4113 428.701,-36.5383 433.477,-46.4094 433.477,-46.4094"/>
</g>
<!-- Product&#45;&gt;Spec -->
<g id="edge6" class="edge">
<title>Product&#45;&gt;Spec</title>
<path fill="none" stroke="#5e7223" d="M457.2859,-68.0126C466.3067,-59.2356 476.6809,-49.1418 485.7365,-40.3309"/>
<ellipse fill="none" stroke="#5e7223" cx="454.3464" cy="-70.8727" rx="4" ry="4"/>
<polygon fill="#5e7223" stroke="#5e7223" points="485.8072,-40.2622 496.1126,-36.5139 489.3908,-36.7754 492.9744,-33.2886 492.9744,-33.2886 492.9744,-33.2886 489.3908,-36.7754 489.8363,-30.0633 485.8072,-40.2622 485.8072,-40.2622"/>
</g>
<!-- ApplicationRecord -->
<g id="node8" class="node">
<title>ApplicationRecord</title>
<ellipse fill="none" stroke="#000000" cx="630.6877" cy="-180.5" rx="77.2916" ry="18"/>
<text text-anchor="middle" x="630.6877" y="-176.3" font-family="Times,serif" font-size="14.00" fill="#000000">ApplicationRecord</text>
</g>
<!-- User -->
<g id="node9" class="node">
<title>User</title>
<ellipse fill="none" stroke="#000000" cx="436.6877" cy="-180.5" rx="27" ry="18"/>
<text text-anchor="middle" x="436.6877" y="-176.3" font-family="Times,serif" font-size="14.00" fill="#000000">User</text>
</g>
<!-- User&#45;&gt;Product -->
<g id="edge7" class="edge">
<title>User&#45;&gt;Product</title>
<path fill="none" stroke="#584ab8" d="M436.1014,-153.9687C435.8555,-142.8402 435.569,-129.878 435.3185,-118.5429"/>
<ellipse fill="none" stroke="#584ab8" cx="436.1946" cy="-158.187" rx="4" ry="4"/>
<polygon fill="#584ab8" stroke="#584ab8" points="435.3129,-118.2843 439.5908,-108.1873 435.2024,-113.2856 435.0919,-108.2868 435.0919,-108.2868 435.0919,-108.2868 435.2024,-113.2856 430.593,-108.3863 435.3129,-118.2843 435.3129,-118.2843"/>
</g>
</g>
</svg>
